<svg width="102" height="102" viewBox="0 0 102 102" fill="none" xmlns="http://www.w3.org/2000/svg">
<path d="M63.8877 64.375C64.8493 63.1239 66.6435 62.8889 67.8945 63.8506C69.1455 64.8123 69.3796 66.6064 68.418 67.8574C65.1755 72.0756 59.2862 74.9341 53.0098 75.4629C46.6286 76.0005 39.5189 74.1656 33.8379 68.5576C32.7149 67.4491 32.703 65.6405 33.8115 64.5176C34.92 63.3947 36.7286 63.3828 37.8516 64.4912C42.1922 68.7762 47.5876 70.1849 52.5303 69.7686C57.5773 69.3433 61.8309 67.0508 63.8877 64.375Z" fill="black"/>
<path d="M40.4824 31.5137C41.9509 31.513 43.0802 32.2505 43.8223 33.0146C44.5558 33.77 45.0852 34.7137 45.4688 35.6475C46.2416 37.5288 46.6536 39.9313 46.6543 42.4375C46.655 44.9436 46.2443 47.3457 45.4727 49.2275C45.0896 50.1616 44.5611 51.1064 43.8281 51.8623C43.0867 52.6268 41.9574 53.3646 40.4893 53.3652C39.021 53.3658 37.8914 52.6284 37.1494 51.8643C36.416 51.1089 35.8865 50.1651 35.5029 49.2314C34.7301 47.3501 34.3181 44.9476 34.3174 42.4414C34.3167 39.9353 34.7274 37.5331 35.499 35.6514C35.882 34.7173 36.4106 33.7725 37.1436 33.0166C37.8849 32.252 39.0141 31.5143 40.4824 31.5137Z" fill="black"/>
<path d="M61.5107 31.5068L61.7822 31.5146C63.1188 31.5979 64.155 32.2905 64.8506 33.0068C65.584 33.7622 66.1135 34.706 66.4971 35.6396C67.2699 37.521 67.6819 39.9235 67.6826 42.4297C67.6833 44.9357 67.2726 47.3379 66.501 49.2197C66.118 50.1538 65.5893 51.0986 64.8564 51.8545C64.1151 52.6191 62.9859 53.3567 61.5176 53.3574C60.0493 53.3581 58.9198 52.6215 58.1777 51.8574C57.4442 51.102 56.9148 50.1574 56.5312 49.2236C55.7585 47.3424 55.3464 44.9406 55.3457 42.4346C55.345 39.9283 55.7556 37.5254 56.5273 35.6436C56.9104 34.7096 57.4391 33.7656 58.1719 33.0098C58.9133 32.2452 60.0424 31.5075 61.5107 31.5068Z" fill="black"/>
<path fill-rule="evenodd" clip-rule="evenodd" d="M63.3896 0.142579C68.9352 0.140587 73.0192 3.29768 75.8984 7.35645C78.5224 11.0555 80.3462 15.7538 81.6338 20.3398C86.2225 21.6187 90.9237 23.4372 94.626 26.0596C98.6885 28.9372 101.847 33.0227 101.849 38.5732C101.85 43.6767 99.2553 47.8002 94.8525 50.9844C99.2574 54.1653 101.855 58.2864 101.857 63.3896C101.859 68.935 98.7031 73.0192 94.6445 75.8984C90.9451 78.5227 86.2457 80.3471 81.6592 81.6348C80.3803 86.2288 78.5632 90.9307 75.9404 94.6318C73.0618 98.6938 68.9759 101.847 63.4268 101.849C58.3233 101.85 54.1998 99.2553 51.0156 94.8525C47.8347 99.2574 43.7135 101.855 38.6104 101.857C33.0648 101.859 28.9808 98.7023 26.1016 94.6436C23.4774 90.9442 21.6529 86.2456 20.3652 81.6592C15.7769 80.3803 11.076 78.5626 7.37402 75.9404C3.31146 73.0628 0.153419 68.9773 0.151368 63.4268C0.149535 58.3236 2.74411 54.1998 7.14649 51.0156C2.74202 47.8347 0.144552 43.7133 0.142579 38.6104C0.140587 33.065 3.29691 28.9808 7.35547 26.1016C11.0547 23.4774 15.7535 21.6519 20.3398 20.3643C21.6188 15.7705 23.4369 11.0691 26.0596 7.36817C28.9382 3.30615 33.024 0.153403 38.5732 0.151368C43.6763 0.149535 47.7993 2.74438 50.9834 7.14649C54.1643 2.74174 58.2865 0.144543 63.3896 0.142579ZM63.3916 5.85742C60.0704 5.8588 56.9629 7.73071 54.2012 12.7393C52.8113 15.2599 49.1632 15.2609 47.7715 12.7412C45.0061 7.73454 41.8966 5.86502 38.5752 5.86621C35.5101 5.86739 32.9567 7.51961 30.7227 10.6719C28.4573 13.8686 26.7713 18.2969 25.5527 22.9805C25.2228 24.2483 24.2342 25.2393 22.9668 25.5723C18.2889 26.801 13.8604 28.4929 10.6621 30.7617C7.50665 33.0002 5.85649 35.5523 5.85742 38.6074C5.85862 41.9288 7.73046 45.037 12.7393 47.7988C15.2599 49.1887 15.2609 52.8368 12.7412 54.2285C7.73455 56.9939 5.86502 60.1035 5.86621 63.4248C5.8674 66.4885 7.52141 69.0423 10.6768 71.2773C13.8757 73.5432 18.304 75.2297 22.9814 76.4482C24.1696 76.7578 25.1143 77.6452 25.502 78.7988L25.5723 79.0332L25.8076 79.9072C27.0143 84.2599 28.6347 88.3394 30.7617 91.3379C33.0002 94.4934 35.5523 96.1435 38.6074 96.1426C41.9288 96.1414 45.037 94.2695 47.7988 89.2607L47.9355 89.0312C49.3669 86.8163 52.659 86.8151 54.0918 89.0293L54.2285 89.2588L54.4893 89.7188C57.1889 94.3802 60.2072 96.1349 63.4248 96.1338C66.4899 96.1326 69.0433 94.4804 71.2773 91.3281C73.5428 88.1314 75.2287 83.7031 76.4473 79.0195C76.7772 77.7517 77.7658 76.7607 79.0332 76.4277C83.7111 75.199 88.1396 73.5071 91.3379 71.2383C94.4934 68.9998 96.1435 66.4477 96.1426 63.3926C96.1414 60.0712 94.2695 56.963 89.2607 54.2012C86.7401 52.8113 86.7391 49.1632 89.2588 47.7715L89.7188 47.5107C94.3802 44.8111 96.1349 41.7927 96.1338 38.5752C96.1326 35.5115 94.4786 32.9577 91.3232 30.7227C88.1243 28.4568 83.696 26.7703 79.0186 25.5518C77.7511 25.2215 76.7605 24.2337 76.4277 22.9668C75.199 18.2889 73.5071 13.8604 71.2383 10.6621C68.9997 7.50645 66.4469 5.85633 63.3916 5.85742Z" fill="black"/>
</svg>
