<svg width="24" height="24" viewBox="0 0 24 24" fill="none" xmlns="http://www.w3.org/2000/svg">
<rect width="24" height="24" rx="8" fill="#0371FF"/>
<path d="M7.12986 8.95466C9.8181 6.34845 14.1819 6.34845 16.8701 8.95466L17.1938 9.27072C17.3295 9.40026 17.3295 9.61269 17.1938 9.74223L16.0872 10.8148C16.0193 10.8821 15.9097 10.8821 15.8418 10.8148L15.3981 10.3847C13.519 8.56606 10.481 8.56606 8.60187 10.3847L8.12686 10.8459C8.059 10.9132 7.94938 10.9132 7.88153 10.8459L6.77491 9.77332C6.6392 9.64378 6.6392 9.43135 6.77491 9.30181L7.12986 8.95466ZM19.1617 11.1723L20.1482 12.1256C20.2839 12.2552 20.2839 12.4676 20.1482 12.5971L15.7061 16.9029C15.5704 17.0324 15.3512 17.0324 15.2207 16.9029L12.0679 13.8459C12.0365 13.8148 11.9791 13.8148 11.9478 13.8459L8.795 16.9029C8.65929 17.0324 8.44005 17.0324 8.30955 16.9029L3.85179 12.5971C3.71607 12.4676 3.71607 12.2552 3.85179 12.1256L4.83834 11.1723C4.97406 11.0427 5.19329 11.0427 5.32379 11.1723L8.47659 14.2293C8.50791 14.2604 8.56533 14.2604 8.59665 14.2293L11.7494 11.1723C11.8852 11.0427 12.1044 11.0427 12.2349 11.1723L15.3877 14.2293C15.419 14.2604 15.4764 14.2604 15.5078 14.2293L18.6606 11.1723C18.8067 11.0427 19.0259 11.0427 19.1617 11.1723Z" fill="white"/>
</svg>
