<svg width="24" height="22" viewBox="0 0 24 22" fill="none" xmlns="http://www.w3.org/2000/svg">
    <path
        d="M4.91617 6.84315C8.82632 3.05228 15.1737 3.05228 19.0838 6.84315L19.5546 7.30287C19.752 7.49129 19.752 7.80028 19.5546 7.98869L17.945 9.54875C17.8463 9.64673 17.6868 9.64673 17.5881 9.54875L16.9427 8.92322C14.2094 6.27791 9.79057 6.27791 7.05726 8.92322L6.36634 9.59397C6.26764 9.69195 6.10819 9.69195 6.00949 9.59397L4.39987 8.03391C4.20247 7.8455 4.20247 7.5365 4.39987 7.34809L4.91617 6.84315ZM22.417 10.0688L23.8519 11.4555C24.0494 11.6439 24.0494 11.9529 23.8519 12.1413L17.3907 18.4041C17.1933 18.5926 16.8744 18.5926 16.6846 18.4041L12.0987 13.9576C12.0531 13.9124 11.9696 13.9124 11.9241 13.9576L7.33818 18.4041C7.14078 18.5926 6.82189 18.5926 6.63208 18.4041L0.148054 12.1413C-0.0493515 11.9529 -0.0493515 11.6439 0.148054 11.4555L1.58304 10.0688C1.78045 9.88036 2.09934 9.88036 2.28915 10.0688L6.87504 14.5153C6.9206 14.5605 7.00411 14.5605 7.04967 14.5153L11.6356 10.0688C11.833 9.88036 12.1519 9.88036 12.3417 10.0688L16.9276 14.5153C16.9731 14.5605 17.0566 14.5605 17.1022 14.5153L21.6881 10.0688C21.9007 9.88036 22.2196 9.88036 22.417 10.0688Z"
        fill="#0371FF" />
</svg>
    