<svg width="32" height="32" viewBox="0 0 32 32" fill="none" xmlns="http://www.w3.org/2000/svg">
<path d="M0 8C0 3.58172 3.58172 0 8 0H24C28.4183 0 32 3.58172 32 8V24C32 28.4183 28.4183 32 24 32H8C3.58172 32 0 28.4183 0 24V8Z" fill="#E5EFFF"/>
<rect x="4" y="4" width="24" height="24" rx="12" fill="#932ED6"/>
<path fill-rule="evenodd" clip-rule="evenodd" d="M17.4778 8.51852L23.1714 14.2121C24.0695 15.1102 24.0695 16.5661 23.1714 17.4642L17.4662 23.1714C16.5681 24.0695 15.1121 24.0695 14.2141 23.1714L8.51852 17.4778C7.62045 16.5798 7.62045 15.1238 8.51852 14.2257L14.2257 8.51852C15.1238 7.62045 16.5798 7.62045 17.4778 8.51852ZM15.4659 9.96282L15.4426 9.9842L9.98614 15.4406C9.76843 15.6584 9.7626 16.0044 9.96476 16.2318L9.98614 16.2551L15.4348 21.7038C15.6525 21.9215 15.9985 21.9273 16.224 21.7252L16.2474 21.7038L21.7038 16.2474C21.9273 16.0238 21.9273 15.6603 21.7038 15.4348L16.2551 9.98614C16.0374 9.76843 15.6914 9.7626 15.4659 9.96476V9.96282ZM15.9499 12.3635L19.3245 15.74C19.3809 15.7964 19.3809 15.8858 19.3245 15.9441L15.9441 19.3245C15.8877 19.3809 15.7964 19.3809 15.74 19.3245L12.3654 15.948C12.3091 15.8916 12.3091 15.8022 12.3654 15.7439L15.7458 12.3635C15.8022 12.3071 15.8936 12.3071 15.9499 12.3635Z" fill="white"/>
</svg>
