<svg width="20" height="20" viewBox="0 0 20 20" fill="none" xmlns="http://www.w3.org/2000/svg">
<g clip-path="url(#clip0_86_1991)">
<path d="M18.3333 9.99984C18.3333 11.648 17.8446 13.2592 16.9289 14.6296C16.0132 16 14.7117 17.0681 13.189 17.6988C11.6663 18.3296 9.99072 18.4946 8.37421 18.173C6.7577 17.8515 5.27284 17.0578 4.10741 15.8924C2.94197 14.727 2.1483 13.2421 1.82675 11.6256C1.50521 10.0091 1.67024 8.33353 2.30097 6.81081C2.9317 5.28809 3.9998 3.9866 5.37021 3.07092C6.74062 2.15525 8.35179 1.6665 9.99996 1.6665M18.3333 1.6665L9.99996 9.99984M18.3333 1.6665H13.3333M18.3333 1.6665V6.6665" stroke="#FF990A" stroke-width="2" stroke-linecap="round" stroke-linejoin="round"/>
</g>
<defs>
<clipPath id="clip0_86_1991">
<rect width="20" height="20" fill="white"/>
</clipPath>
</defs>
</svg>
