<svg width="104" height="100" viewBox="0 0 104 100" fill="none" xmlns="http://www.w3.org/2000/svg">
<path d="M77.438 52.1464C77.7284 51.8477 77.7284 51.3829 77.438 51.1008L60.085 33.7395C59.9356 33.5901 59.8775 33.532 59.6866 33.532C60.3588 39.1836 60.8817 44.7936 60.8817 50.329C60.8817 56.8685 60.7572 62.769 59.5538 69.7401C59.6368 69.7401 59.7945 69.7235 59.9439 69.6239C59.9854 69.599 60.0269 69.5658 60.0684 69.5243L77.438 52.1464Z" fill="#929292"/>
<path d="M96.3429 59.0843C100.467 54.9598 100.467 48.246 96.3429 44.1214L67.0643 14.8429C65.4627 13.2412 61.2219 9.97971 54.9811 12.4362C55.4874 13.3076 56.143 14.5358 56.6326 15.7557C57.1306 17.0089 57.6202 18.4114 57.9521 19.3907C59.2966 19.0255 61.1804 18.9093 62.5995 20.6853L90.5668 48.6443C92.2017 50.2875 92.1934 52.9514 90.5668 54.5863L62.3506 82.786C61.4211 83.6906 59.7447 84.5205 56.948 83.6325C56.699 84.3794 56.3422 85.4085 55.894 86.645C55.4044 87.9894 54.865 89.1264 54.45 89.9314C59.6285 92.0642 64.0518 91.5496 66.9897 88.4542L96.3429 59.0843Z" fill="#929292"/>
<path fill-rule="evenodd" clip-rule="evenodd" d="M38.1934 2C40.7578 2 43.0046 3.21463 44.9102 5.21582C46.8039 7.20475 48.4084 10.0152 49.7451 13.3594C49.8683 13.6636 49.9869 13.9729 50.1025 14.2832L50.4453 15.2158L50.4482 15.2236C51.038 16.8816 51.5788 18.6761 52.0469 20.5615C52.0487 20.5658 52.0513 20.5698 52.0527 20.5732C52.0881 20.6592 52.1102 20.7416 52.1221 20.7891C52.149 20.8966 52.1743 21.0293 52.1973 21.1641C52.2445 21.4415 52.2989 21.8254 52.3574 22.2695C52.475 23.1619 52.6147 24.3488 52.7539 25.5254C52.8937 26.7068 53.033 27.8786 53.1484 28.7549C53.1782 28.9807 53.2059 29.1841 53.2314 29.3604H53.2344L53.3955 30.1641V30.167C53.3955 30.167 53.3969 30.1711 53.3975 30.1738C53.3985 30.1793 53.3994 30.1872 53.4014 30.1973C53.4054 30.2178 53.4116 30.248 53.4189 30.2871C53.4337 30.3653 53.4546 30.4806 53.4814 30.6309C53.5351 30.9316 53.6111 31.3742 53.7002 31.9473C53.8784 33.0937 54.1112 34.7639 54.3301 36.8701C54.7677 41.0822 55.1518 47.0436 54.9404 54.0547C54.7247 62.2052 54.0629 68.7536 53.4297 73.2725C53.1131 75.5316 52.8035 77.2874 52.5586 78.4854C52.4365 79.0825 52.3291 79.5497 52.2432 79.875C52.2011 80.0342 52.159 80.1777 52.1191 80.291C52.1055 80.3296 52.082 80.3822 52.0557 80.4404C51.5877 82.3251 51.0466 84.1189 50.457 85.7764L50.4541 85.7842C50.2282 86.4029 50.0017 87.0283 49.7559 87.6357L49.7568 87.6367C48.4151 90.9826 46.8069 93.7945 44.9111 95.7842C43.0046 97.7852 40.7579 99 38.1934 99C35.1265 98.9999 32.5337 97.2712 30.415 94.5439C28.3003 91.8217 26.5679 88.0001 25.1914 83.5215C24.6773 81.8636 24.2112 80.0994 23.7998 78.2656C21.9548 77.8492 20.1933 77.3911 18.5322 76.8887L18.5303 76.8877C14.0348 75.517 10.2009 73.7949 7.4707 71.6914C4.7357 69.5842 3 67.002 3 63.9424C3.00004 61.3793 4.22213 59.1399 6.23145 57.2432C8.1043 55.4754 10.7017 53.9617 13.7861 52.6826L14.4092 52.4297C14.7148 52.307 15.0242 52.1902 15.3359 52.0762L16.2812 51.7402C17.5322 51.299 18.8552 50.8852 20.2422 50.5049C18.8534 50.1241 17.5287 49.7095 16.2764 49.2676C15.6236 49.0442 14.9995 48.8109 14.3955 48.5684C11.0389 47.2326 8.21997 45.6341 6.22559 43.749C4.21905 41.8525 3.00004 39.6157 3 37.0576C3 33.998 4.73546 31.4158 7.47168 29.3086C10.2024 27.2057 14.0375 25.4838 18.5361 24.1133L19.2344 23.9023C20.6887 23.4724 22.2235 23.0788 23.8164 22.7256C24.2344 20.8883 24.6952 19.1344 25.1992 17.4727L25.2012 17.4688L25.4629 16.6377C26.7949 12.5178 28.4395 9.00123 30.4199 6.45117C32.5365 3.726 35.1269 2.00007 38.1934 2ZM41.5527 54.501C38.4499 54.7073 35.587 54.9993 32.9717 55.3652L32.9727 55.3662C27.549 56.1299 21.9434 57.3505 17.1553 59.2842L17.1543 59.2832C14.6841 60.2909 12.9292 61.3068 11.8115 62.1963C11.2518 62.6418 10.8773 63.0363 10.6504 63.3584C10.4163 63.6909 10.3887 63.8758 10.3887 63.9238C10.3888 63.9725 10.4216 64.1771 10.6973 64.5469C10.963 64.9032 11.3987 65.3368 12.0439 65.8223C13.3331 66.7921 15.3533 67.8917 18.1904 68.9531L18.8076 69.1787C19.8817 69.5636 21.0616 69.942 22.3467 70.3037C22.1423 68.8845 21.9584 67.4353 21.7959 65.9717L21.7949 65.9609C21.671 64.7265 21.5456 63.4608 21.4492 62.1738L21.3896 61.375L22.1562 61.1426C23.7175 60.6693 25.5011 60.196 27.5254 59.7715L28.6523 59.5352L28.7285 60.6846C28.8798 62.9642 29.0872 65.1117 29.333 67.127L29.4707 68.2061C30.137 73.2469 31.1815 78.3711 32.7783 82.8848L33.1289 83.8418L33.1299 83.8438L33.3301 84.3643C34.3327 86.9176 35.3599 88.7596 36.2725 89.9629C36.7599 90.6057 37.1946 91.0408 37.5527 91.3057C37.9238 91.5801 38.131 91.6131 38.1836 91.6133C38.2352 91.6133 38.4229 91.5849 38.7568 91.3516C39.0806 91.1254 39.4758 90.7516 39.9229 90.1943C40.816 89.0809 41.8367 87.3329 42.8486 84.8711L43.0752 84.3066C43.4781 83.2819 43.8762 82.1427 44.2578 80.8906C42.8162 80.8207 41.3786 80.7327 39.9512 80.6143C38.668 80.5093 37.4038 80.3945 36.1494 80.2705L35.4854 80.2051L35.291 79.5674C34.7945 77.9383 34.3195 76.074 33.8848 73.9473L33.6074 72.5869L34.9854 72.7539C36.5031 72.9376 38.0956 73.1 39.7627 73.2334L41.4541 73.3564L41.459 73.3574L42.7812 73.4414C43.8491 73.5035 44.9529 73.5517 46.0469 73.5908C46.3186 72.1943 46.5686 70.7006 46.7891 69.124V69.1221L46.9336 68.0576C47.234 65.7525 47.4746 63.2566 47.6406 60.5654C44.8679 59.467 42.6613 57.2622 41.5527 54.501ZM42.751 87.502C42.8309 87.3422 42.9142 87.1802 42.9941 87.0127L43.0176 86.9609C42.9295 87.1464 42.839 87.326 42.751 87.502ZM49.5146 85.4414C49.3008 86.0272 49.0936 86.5958 48.873 87.1484C48.9758 86.8914 49.0773 86.6315 49.1758 86.3672L49.5146 85.4414ZM32.6045 85.2412C32.644 85.3378 32.685 85.4328 32.7246 85.5273C32.616 85.268 32.5062 85.0019 32.3984 84.7275L32.6045 85.2412ZM45.4814 74.5723L46.8633 74.6201C46.3358 74.6037 45.8028 74.5842 45.2695 74.5625C45.3402 74.5654 45.4108 74.5695 45.4814 74.5723ZM47.5205 70.9922C47.5373 70.8861 47.5548 70.7797 47.5713 70.6729L47.6084 70.4199C47.579 70.6119 47.5505 70.8028 47.5205 70.9922ZM18.4707 70.1201C18.4953 70.1289 18.5202 70.1367 18.5449 70.1455C18.305 70.0601 18.0697 69.9757 17.8398 69.8896L18.4707 70.1201ZM4.49707 66.5137L4.51172 66.5488C4.47743 66.464 4.44504 66.3786 4.41406 66.293C4.44072 66.3667 4.46794 66.4405 4.49707 66.5137ZM4.22266 65.6807C4.2322 65.717 4.24377 65.7528 4.25391 65.7891C4.24298 65.7499 4.23093 65.7112 4.2207 65.6719L4.22266 65.6807ZM38.1934 9.36719C38.1412 9.36727 37.9341 9.40095 37.5625 9.67578C37.2044 9.94065 36.7687 10.3748 36.2812 11.0176C35.3687 12.2209 34.3425 14.0637 33.3398 16.6172L33.1396 17.1377C32.6765 18.3654 32.2166 19.7425 31.7832 21.2695C33.21 21.0657 34.6672 20.8828 36.1387 20.7207L36.1494 20.7197L38.0381 20.5371C38.6733 20.4785 39.314 20.424 39.96 20.376L40.7529 20.3164L40.9893 21.0752C41.4764 22.6375 41.9417 24.4167 42.3672 26.4297L42.6055 27.5576L41.4541 27.6338C39.1652 27.7845 37.0089 27.9905 34.9854 28.2354L34.9863 28.2363C29.2173 28.944 23.2763 30.1092 18.2012 32.0176L18.1992 32.0186C15.3622 33.08 13.3428 34.1796 12.0537 35.1494C11.4083 35.6351 10.9717 36.0684 10.7061 36.4248C10.4301 36.795 10.3985 36.9995 10.3984 37.0479C10.3984 37.0959 10.4259 37.2807 10.6602 37.6133C10.887 37.9353 11.2617 38.3291 11.8213 38.7744C12.9394 39.6642 14.6953 40.6804 17.167 41.6885C18.3398 42.166 19.6753 42.6437 21.1709 43.0957C21.2411 41.654 21.3311 40.221 21.4502 38.7979C21.5556 37.5196 21.6704 36.2601 21.7949 35.0195L21.8623 34.3516L22.5059 34.1611C24.1374 33.6775 26.0052 33.2048 28.1377 32.7627L29.502 32.4795L29.333 33.8633C29.0872 35.8787 28.8799 38.0268 28.7285 40.3066L28.7275 40.3115C28.6239 41.7654 28.5479 43.33 28.4922 44.875C29.8953 45.1458 31.3964 45.3945 32.9805 45.6143L34.0508 45.7588C36.3662 46.0582 38.8763 46.3 41.5615 46.4785C42.672 43.7086 44.8873 41.5117 47.6562 40.4014C47.4492 37.3046 47.1562 34.4552 46.7891 31.8604L46.6396 30.8545C45.865 25.8077 44.6671 20.5421 42.8574 16.1094C41.8454 13.6475 40.8258 11.8996 39.9326 10.7861C39.4857 10.2291 39.0902 9.85608 38.7666 9.62988C38.4326 9.3965 38.245 9.36719 38.1934 9.36719ZM17.9756 43.0771C18.085 43.118 18.1959 43.1576 18.3076 43.1982C17.9862 43.0812 17.6737 42.9647 17.3711 42.8467L17.9756 43.0771ZM9.45996 37.4434C9.47259 37.4857 9.48737 37.5287 9.50391 37.5723C9.48626 37.5257 9.47121 37.4797 9.45801 37.4346L9.45996 37.4434ZM4.14453 35.6523C4.13395 35.7029 4.12467 35.7538 4.11523 35.8047C4.12741 35.7391 4.14021 35.6736 4.1543 35.6084L4.14453 35.6523ZM16.7998 31.4902C16.6463 31.5525 16.4952 31.6143 16.3467 31.6768C16.6584 31.5456 16.9816 31.4162 17.3154 31.2861L16.7998 31.4902ZM38.6475 8.44824C38.6283 8.44187 38.6097 8.43432 38.5908 8.42871L38.582 8.42676C38.6038 8.43308 38.6254 8.4409 38.6475 8.44824ZM39.0146 3.04883C39.1479 3.06468 39.2805 3.08392 39.4121 3.10742C39.1469 3.06007 38.8784 3.02778 38.6064 3.01172L39.0146 3.04883Z" fill="black"/>
</svg>
