<svg width="32" height="32" viewBox="0 0 32 32" fill="none" xmlns="http://www.w3.org/2000/svg">
<path d="M0 8C0 3.58172 3.58172 0 8 0H24C28.4183 0 32 3.58172 32 8V24C32 28.4183 28.4183 32 24 32H8C3.58172 32 0 28.4183 0 24V8Z" fill="#E5EFFF"/>
<path d="M25.0037 6.61084L17.1998 12.4312L18.6429 8.99725L25.0037 6.61084Z" fill="#E2761B"/>
<path d="M6.988 6.61084L14.7292 12.4863L13.3566 8.99725L6.988 6.61084ZM22.1958 20.1024L20.1174 23.3L24.5645 24.5286L25.8429 20.1732L22.1958 20.1024ZM6.16447 20.1732L7.43506 24.5286L11.8821 23.3L9.80369 20.1024L6.16447 20.1732Z" fill="#E4761B"/>
<path d="M11.6311 14.6995L10.3919 16.5818L14.8076 16.7787L14.6507 12.0137L11.6311 14.6995ZM20.3605 14.6995L17.3017 11.9586L17.1997 16.7787L21.6076 16.5818L20.3605 14.6995ZM11.8821 23.3L14.5331 22.0005L12.2429 20.2047L11.8821 23.3ZM17.4586 22.0005L20.1174 23.3L19.7488 20.2047L17.4586 22.0005Z" fill="#E4761B"/>
<path d="M20.1174 23.3L17.4585 22.0005L17.6703 23.7411L17.6468 24.4735L20.1174 23.3ZM11.8821 23.3L14.3527 24.4735L14.337 23.7411L14.5331 22.0005L11.8821 23.3Z" fill="#D7C1B3"/>
<path d="M14.3919 19.0549L12.1802 18.4012L13.7409 17.6844L14.3919 19.0549ZM17.5998 19.0549L18.2507 17.6844L19.8194 18.4012L17.5998 19.0549Z" fill="#233447"/>
<path d="M11.8821 23.3L12.2586 20.1023L9.80368 20.1732L11.8821 23.3ZM19.7409 20.1023L20.1174 23.3L22.1958 20.1732L19.7409 20.1023ZM21.6076 16.5818L17.1998 16.7787L17.6076 19.0548L18.2586 17.6844L19.8272 18.4011L21.6076 16.5818ZM12.1802 18.4011L13.7488 17.6844L14.3919 19.0548L14.8076 16.7787L10.3919 16.5818L12.1802 18.4011Z" fill="#CD6116"/>
<path d="M10.3919 16.5818L12.2429 20.2047L12.1801 18.4011L10.3919 16.5818ZM19.8272 18.4011L19.7488 20.2047L21.6076 16.5818L19.8272 18.4011ZM14.8076 16.7787L14.3919 19.0548L14.9096 21.7405L15.0272 18.2042L14.8076 16.7787ZM17.1997 16.7787L16.988 18.1964L17.0821 21.7405L17.6076 19.0548L17.1997 16.7787Z" fill="#E4751F"/>
<path d="M17.6076 19.0548L17.0821 21.7405L17.4586 22.0004L19.7488 20.2047L19.8272 18.4011L17.6076 19.0548ZM12.1802 18.4011L12.2429 20.2047L14.5331 22.0004L14.9096 21.7405L14.3919 19.0548L12.1802 18.4011Z" fill="#F6851B"/>
<path d="M17.6468 24.4736L17.6703 23.7411L17.4742 23.5678H14.5174L14.337 23.7411L14.3527 24.4736L11.8821 23.3L12.7448 24.0089L14.4938 25.2297H17.4978L19.2546 24.0089L20.1174 23.3L17.6468 24.4736Z" fill="#C0AD9E"/>
<path d="M17.4586 22.0005L17.0821 21.7406H14.9096L14.5331 22.0005L14.337 23.7411L14.5174 23.5678H17.4743L17.6703 23.7411L17.4586 22.0005Z" fill="#161616"/>
<path d="M25.3331 12.8092L25.9998 9.59583L25.0037 6.61084L17.4586 12.2343L20.3605 14.6994L24.4625 15.9045L25.3723 14.8412L24.9801 14.5577L25.6076 13.9827L25.1213 13.6047L25.7488 13.1243L25.3331 12.8092ZM5.99976 9.59583L6.66642 12.8092L6.24289 13.1243L6.87034 13.6047L6.39191 13.9827L7.01936 14.5577L6.62721 14.8412L7.52917 15.9045L11.6311 14.6994L14.5331 12.2343L6.98799 6.61084L5.99976 9.59583Z" fill="#763D16"/>
<path d="M24.4625 15.9044L20.3606 14.6994L21.6076 16.5817L19.7488 20.2047L22.1958 20.1732H25.8429L24.4625 15.9044ZM11.6311 14.6994L7.52918 15.9044L6.16447 20.1732H9.80369L12.2429 20.2047L10.3919 16.5817L11.6311 14.6994ZM17.1998 16.7786L17.4586 12.2342L18.6508 8.99719H13.3566L14.5331 12.2342L14.8076 16.7786L14.9017 18.2121L14.9096 21.7405H17.0821L17.0978 18.2121L17.1998 16.7786Z" fill="#F6851B"/>
</svg>
