<svg width="56" height="56" viewBox="0 0 56 56" fill="none" xmlns="http://www.w3.org/2000/svg">
<rect width="56" height="56" rx="28" fill="white"/>
<path d="M40.6062 14.8552L29.6807 23.0037L31.7011 18.1962L40.6062 14.8552Z" fill="#E2761B"/>
<path d="M15.3834 14.8552L26.2211 23.0809L24.2995 18.1962L15.3834 14.8552ZM36.6744 33.7433L33.7646 38.22L39.9905 39.9401L41.7803 33.8426L36.6744 33.7433ZM14.2305 33.8426L16.0093 39.9401L22.2352 38.22L19.3254 33.7433L14.2305 33.8426Z" fill="#E4761B"/>
<path d="M21.8838 26.179L20.1489 28.8143L26.3309 29.0899L26.1113 22.419L21.8838 26.179ZM34.105 26.179L29.8226 22.3418L29.6799 29.0899L35.8509 28.8143L34.105 26.179ZM22.2352 38.2197L25.9466 36.4004L22.7403 33.8864L22.2352 38.2197ZM30.0423 36.4004L33.7646 38.2197L33.2485 33.8864L30.0423 36.4004Z" fill="#E4761B"/>
<path d="M33.7648 38.22L30.0424 36.4006L30.3389 38.8375L30.3059 39.8629L33.7648 38.22ZM22.2354 38.22L25.6942 39.8629L25.6722 38.8375L25.9467 36.4006L22.2354 38.22Z" fill="#D7C1B3"/>
<path d="M25.7488 32.2765L22.6523 31.3613L24.8374 30.3579L25.7488 32.2765ZM30.2398 32.2765L31.1512 30.3579L33.3472 31.3613L30.2398 32.2765Z" fill="#233447"/>
<path d="M22.235 38.2199L22.7621 33.7432L19.3252 33.8425L22.235 38.2199ZM33.2374 33.7432L33.7644 38.2199L36.6742 33.8425L33.2374 33.7432ZM35.8507 28.8145L29.6797 29.0901L30.2507 32.2767L31.1621 30.3581L33.3581 31.3615L35.8507 28.8145ZM22.6523 31.3615L24.8483 30.3581L25.7487 32.2767L26.3307 29.0901L20.1487 28.8145L22.6523 31.3615Z" fill="#CD6116"/>
<path d="M20.1489 28.8145L22.7403 33.8866L22.6525 31.3615L20.1489 28.8145ZM33.3583 31.3615L33.2485 33.8866L35.8509 28.8145L33.3583 31.3615ZM26.3309 29.0901L25.7489 32.2767L26.4736 36.0367L26.6383 31.0859L26.3309 29.0901ZM29.6799 29.0901L29.3834 31.0749L29.5152 36.0367L30.2509 32.2767L29.6799 29.0901Z" fill="#E4751F"/>
<path d="M30.2508 32.2768L29.5151 36.0367L30.0421 36.4006L33.2484 33.8866L33.3582 31.3616L30.2508 32.2768ZM22.6523 31.3616L22.7402 33.8866L25.9465 36.4006L26.4735 36.0367L25.7488 32.2768L22.6523 31.3616Z" fill="#F6851B"/>
<path d="M30.3059 39.8629L30.3389 38.8374L30.0644 38.5949H25.9248L25.6722 38.8374L25.6942 39.8629L22.2354 38.22L23.4432 39.2123L25.8918 40.9214H30.0973L32.5569 39.2123L33.7648 38.22L30.3059 39.8629Z" fill="#C0AD9E"/>
<path d="M30.0426 36.4005L29.5155 36.0366H26.4739L25.9469 36.4005L25.6724 38.8373L25.9249 38.5947H30.0645L30.339 38.8373L30.0426 36.4005Z" fill="#161616"/>
<path d="M41.0667 23.533L42 19.0342L40.6055 14.8552L30.0424 22.728L34.1051 26.1793L39.8478 27.8663L41.1216 26.3777L40.5725 25.9808L41.451 25.1759L40.7702 24.6466L41.6486 23.974L41.0667 23.533ZM14 19.0342L14.9333 23.533L14.3404 23.974L15.2188 24.6466L14.549 25.1759L15.4275 25.9808L14.8784 26.3777L16.1412 27.8663L21.8839 26.1793L25.9467 22.728L15.3835 14.8552L14 19.0342Z" fill="#763D16"/>
<path d="M39.8477 27.8664L34.105 26.1794L35.8509 28.8146L33.2485 33.8868L36.6744 33.8427H41.7803L39.8477 27.8664ZM21.8838 26.1794L16.1411 27.8664L14.2305 33.8427H19.3254L22.7403 33.8868L20.1489 28.8146L21.8838 26.1794ZM29.6799 29.0903L30.0422 22.7281L31.7113 18.1963H24.2995L25.9465 22.7281L26.3309 29.0903L26.4626 31.0971L26.4736 36.0369H29.5152L29.5371 31.0971L29.6799 29.0903Z" fill="#F6851B"/>
</svg>