<svg width="22" height="22" viewBox="0 0 22 22" fill="none" xmlns="http://www.w3.org/2000/svg">
<path fill-rule="evenodd" clip-rule="evenodd" d="M12.9705 1.02453L20.5619 8.616C21.7593 9.81342 21.7593 11.7547 20.5619 12.9521L12.9549 20.5617C11.7575 21.7592 9.8162 21.7592 8.61877 20.5617L1.02472 12.9703C-0.172708 11.7728 -0.172708 9.83156 1.02472 8.63414L8.63432 1.02453C9.83175 -0.172891 11.773 -0.172891 12.9705 1.02453ZM10.2879 2.95026L10.2568 2.97877L2.98155 10.254C2.69126 10.5443 2.68349 11.0057 2.95304 11.3089L2.98155 11.34L10.2464 18.6049C10.5367 18.8952 10.9981 18.903 11.2987 18.6334L11.3298 18.6049L18.6051 11.3296C18.9031 11.0316 18.9031 10.5469 18.6051 10.2463L11.3402 2.98136C11.0499 2.69108 10.5886 2.6833 10.2879 2.95285V2.95026ZM10.9333 6.15117L15.4327 10.6532C15.5078 10.7283 15.5078 10.8476 15.4327 10.9253L10.9255 15.4325C10.8503 15.5077 10.7285 15.5077 10.6534 15.4325L6.15394 10.9305C6.07878 10.8553 6.07878 10.7361 6.15394 10.6584L10.6611 6.15117C10.7363 6.07601 10.8581 6.07601 10.9333 6.15117Z" fill="#929292"/>
</svg>
