<svg width="16" height="16" viewBox="0 0 16 16" fill="none" xmlns="http://www.w3.org/2000/svg">
<path d="M7.4668 14.4001V2.13343L8.00013 1.6001L12.8001 3.73343C12.9779 3.55565 13.3335 3.73343 13.3335 5.86676C13.3335 8.53343 12.8001 9.6001 11.7335 11.7334C10.8801 13.4401 8.53346 14.2223 7.4668 14.4001Z" fill="#E5E5E5"/>
<path d="M8.18324 1.1047L13.1366 3.10718C13.2659 3.15959 13.3687 3.27038 13.409 3.40081C14.0677 5.49783 14.0312 7.89562 13.196 10.0196C12.3608 12.1436 10.7007 13.9944 8.16343 14.9054C8.05896 14.9426 7.94097 14.9426 7.83651 14.9054C5.29921 13.9944 3.63914 12.1436 2.80392 10.0196C1.96869 7.89562 1.93226 5.49783 2.59093 3.40081C2.63124 3.27038 2.73403 3.15959 2.86336 3.10718L7.81669 1.1047C7.95308 1.0486 8.08548 1.05964 8.18324 1.1047ZM7.99997 2.02893V13.9716C10.1764 13.1368 11.5756 11.5533 12.3094 9.68745C13.0366 7.83807 13.0772 5.72134 12.5422 3.86774L7.99997 2.02893Z" fill="#3B3B3B"/>
</svg>
