<svg width="288" height="189" viewBox="0 0 288 189" fill="none" xmlns="http://www.w3.org/2000/svg">
<g clip-path="url(#clip0_527_14830)">
<path d="M0 6C0 2.68629 2.68629 0 6 0H282C285.314 0 288 2.68629 288 6V183C288 186.314 285.314 189 282 189H5.99999C2.68629 189 0 186.314 0 183V6Z" fill="#E5E5E5"/>
<rect width="334.096" height="39.2638" transform="translate(-45.6885)" fill="white"/>
<mask id="mask0_527_14830" style="mask-type:alpha" maskUnits="userSpaceOnUse" x="11" y="10" width="21" height="21">
<rect x="11" y="10.0847" width="20.0148" height="20.0148" fill="#D9D9D9"/>
</mask>
<g mask="url(#mask0_527_14830)">
<path d="M21.0075 26.7636C19.145 26.7636 17.5675 26.1173 16.2749 24.8247C14.9822 23.5321 14.3359 21.9545 14.3359 20.0921C14.3359 18.2296 14.9822 16.652 16.2749 15.3594C17.5675 14.0668 19.145 13.4205 21.0075 13.4205C21.9666 13.4205 22.8839 13.6185 23.7596 14.0147C24.6352 14.4108 25.3858 14.9772 26.0112 15.7138V13.4205H27.6791V19.2581H21.8415V17.5902H25.3441C24.8993 16.8119 24.2912 16.2003 23.5198 15.7555C22.7484 15.3108 21.911 15.0884 21.0075 15.0884C19.6176 15.0884 18.4362 15.5748 17.4632 16.5478C16.4903 17.5207 16.0038 18.7021 16.0038 20.0921C16.0038 21.482 16.4903 22.6634 17.4632 23.6363C18.4362 24.6093 19.6176 25.0958 21.0075 25.0958C22.0778 25.0958 23.0438 24.79 23.9055 24.1784C24.7672 23.5668 25.3719 22.7607 25.7193 21.76H27.4706C27.0815 23.2333 26.2892 24.4355 25.0939 25.3668C23.8985 26.298 22.5364 26.7636 21.0075 26.7636Z" fill="#1C1B1F"/>
</g>
<rect x="40.8179" y="6" width="227.182" height="28.1841" rx="14.092" fill="#F5F5F5"/>
<ellipse cx="225.418" cy="20.1104" rx="12.4419" ry="12.4744" fill="#D9D9D9"/>
<mask id="mask1_527_14830" style="mask-type:alpha" maskUnits="userSpaceOnUse" x="214" y="10" width="21" height="21">
<rect x="214.763" y="10.0847" width="20.0148" height="20.0148" fill="#D9D9D9"/>
</mask>
<g mask="url(#mask1_527_14830)">
<path d="M226.313 19.258L227.981 20.9259H229.357C229.705 20.9259 230 20.8043 230.243 20.561C230.487 20.3178 230.608 20.0224 230.608 19.675V17.1731C230.608 16.8256 230.487 16.5303 230.243 16.2871C230 16.0438 229.705 15.9222 229.357 15.9222H225.187C224.882 15.9222 224.618 16.0195 224.395 16.2141C224.173 16.4087 224.027 16.645 223.957 16.9229L224.645 17.5901H228.94V19.258H226.313ZM232.922 25.867L231.442 24.3868V15.0883H222.144L220.476 13.4204H231.442C231.901 13.4204 232.293 13.5837 232.62 13.9103C232.947 14.2369 233.11 14.6296 233.11 15.0883V25.0956C233.11 25.2346 233.096 25.3701 233.068 25.5022C233.04 25.6342 232.992 25.7558 232.922 25.867ZM231.817 29.5156L229.065 26.7635H218.099C217.64 26.7635 217.248 26.6002 216.921 26.2736C216.594 25.947 216.431 25.5543 216.431 25.0956V15.0883C216.431 14.6296 216.594 14.2369 216.921 13.9103C217.248 13.5837 217.64 13.4204 218.099 13.4204L219.767 15.0883H218.099V25.0956H227.397L215.305 13.0034L216.494 11.815L233.006 28.3272L231.817 29.5156Z" fill="#1C1B1F"/>
</g>
<mask id="mask2_527_14830" style="mask-type:alpha" maskUnits="userSpaceOnUse" x="241" y="10" width="21" height="21">
<rect x="241.45" y="10.0847" width="20.0148" height="20.0148" fill="#D9D9D9"/>
</mask>
<g mask="url(#mask2_527_14830)">
<path d="M248.83 24.1158L251.457 22.5313L254.084 24.1366L253.396 21.1344L255.71 19.1329L252.666 18.8619L251.457 16.0265L250.248 18.8411L247.204 19.1121L249.518 21.1344L248.83 24.1158ZM246.308 27.5975L247.663 21.739L243.118 17.7986L249.122 17.2774L251.457 11.7525L253.792 17.2774L259.797 17.7986L255.252 21.739L256.607 27.5975L251.457 24.4911L246.308 27.5975Z" fill="#1C1B1F"/>
</g>
<rect x="55.0957" y="14.9979" width="83.6261" height="10.2249" rx="2.85925" fill="#E5E5E5"/>
<g filter="url(#filter0_d_527_14830)">
<rect x="54" y="34" width="186.833" height="144.256" rx="13.0709" fill="white" shape-rendering="crispEdges"/>
<path d="M71.3187 58.0709V49.1868H74.3454C76.5634 49.1868 78.1564 49.7014 78.1564 51.9439C78.1564 54.2109 76.5634 54.7255 74.3454 54.7255H72.8872V58.0709H71.3187ZM72.8872 53.3776H74.4312C75.6076 53.3776 76.5266 53.2183 76.5266 51.9439C76.5266 50.694 75.6076 50.5102 74.4312 50.5102H72.8872V53.3776ZM82.1064 58.2302C80.4521 58.2302 78.7978 57.1641 78.7978 54.7746C78.7978 52.385 80.4521 51.3312 82.1064 51.3312C83.7484 51.3312 85.4027 52.385 85.4027 54.7746C85.4027 57.1641 83.7484 58.2302 82.1064 58.2302ZM82.1064 57.0293C83.0377 57.0293 83.8709 56.3921 83.8709 54.7746C83.8709 53.1693 83.0254 52.5443 82.1064 52.5443C81.1751 52.5443 80.3296 53.1693 80.3296 54.7746C80.3296 56.3921 81.1628 57.0293 82.1064 57.0293ZM86.7535 60.2153V51.4782H88.2117V52.4586C88.6283 51.7601 89.3881 51.3557 90.3194 51.3557C91.9001 51.3557 93.1746 52.6301 93.1746 54.7868C93.1746 56.9558 91.9001 58.2302 90.3194 58.2302C89.3881 58.2302 88.6283 57.8258 88.2117 57.1151V60.2153H86.7535ZM89.8905 57.0415C90.9076 57.0415 91.6183 56.2328 91.6183 54.7868C91.6183 53.3531 90.9076 52.5443 89.8905 52.5443C88.9715 52.5443 88.1504 53.1938 88.1504 54.7868C88.1504 56.3798 88.9715 57.0415 89.8905 57.0415ZM98.6492 58.0709V57.1396C98.2693 57.7768 97.6934 58.2302 96.6395 58.2302C95.022 58.2302 94.4583 57.2131 94.4583 55.5956V51.4782H95.9166V55.2034C95.9166 56.196 96.0391 57.0293 97.1665 57.0293C98.1468 57.0293 98.6492 56.3798 98.6492 55.0441V51.4782H100.12V58.0709H98.6492ZM101.867 60.2153V51.4782H103.326V52.4586C103.742 51.7601 104.502 51.3557 105.433 51.3557C107.014 51.3557 108.289 52.6301 108.289 54.7868C108.289 56.9558 107.014 58.2302 105.433 58.2302C104.502 58.2302 103.742 57.8258 103.326 57.1151V60.2153H101.867ZM105.004 57.0415C106.022 57.0415 106.732 56.2328 106.732 54.7868C106.732 53.3531 106.022 52.5443 105.004 52.5443C104.085 52.5443 103.264 53.1938 103.264 54.7868C103.264 56.3798 104.085 57.0415 105.004 57.0415ZM111.668 53.9658L112.709 54.1619C114.07 54.4192 115.001 54.8848 115.001 56.1102C115.001 57.4827 113.751 58.2302 112.121 58.2302C110.393 58.2302 109.303 57.2376 109.143 55.9387H110.589C110.761 56.6984 111.276 57.0905 112.146 57.0905C112.942 57.0905 113.567 56.7842 113.567 56.2573C113.567 55.7304 113.077 55.4853 112.342 55.3505L111.288 55.1544C110.259 54.9584 109.315 54.4682 109.315 53.3041C109.315 52.0419 110.577 51.3312 112.097 51.3312C113.543 51.3312 114.67 52.0664 114.891 53.4021H113.457C113.298 52.7281 112.722 52.4831 111.999 52.4831C111.349 52.4831 110.736 52.7159 110.736 53.2428C110.736 53.6472 111.055 53.8555 111.668 53.9658ZM119.112 58.0709V49.1868H120.57V52.4586C120.986 51.7601 121.746 51.3557 122.677 51.3557C124.258 51.3557 125.533 52.6301 125.533 54.7868C125.533 56.9558 124.258 58.2302 122.677 58.2302C121.746 58.2302 120.986 57.8258 120.57 57.1151V58.0709H119.112ZM122.249 57.0415C123.266 57.0415 123.976 56.2328 123.976 54.7868C123.976 53.3531 123.266 52.5443 122.249 52.5443C121.33 52.5443 120.509 53.1938 120.509 54.7868C120.509 56.3798 121.33 57.0415 122.249 57.0415ZM126.89 58.0709V49.1868H128.348V58.0709H126.89ZM133.001 58.2302C131.347 58.2302 129.692 57.1641 129.692 54.7746C129.692 52.385 131.347 51.3312 133.001 51.3312C134.643 51.3312 136.297 52.385 136.297 54.7746C136.297 57.1641 134.643 58.2302 133.001 58.2302ZM133.001 57.0293C133.932 57.0293 134.765 56.3921 134.765 54.7746C134.765 53.1693 133.92 52.5443 133.001 52.5443C132.07 52.5443 131.224 53.1693 131.224 54.7746C131.224 56.3921 132.057 57.0293 133.001 57.0293ZM142.084 55.8161H143.518C143.211 57.3356 141.876 58.2302 140.417 58.2302C138.432 58.2302 137.231 56.8087 137.231 54.7623C137.231 52.7649 138.518 51.3312 140.491 51.3312C141.998 51.3312 143.199 52.3115 143.444 53.7575H142.023C141.863 52.9855 141.251 52.5443 140.491 52.5443C139.596 52.5443 138.763 53.206 138.763 54.7623C138.763 56.3553 139.609 57.0293 140.491 57.0293C141.349 57.0293 141.937 56.4901 142.084 55.8161ZM144.768 58.0709V49.1868H146.226V54.2721L148.714 51.4782H150.479L148.028 54.1373L150.76 58.0709H149.02L147.035 55.2034L146.226 56.0735V58.0709H144.768ZM154.17 52.5198C153.386 52.5198 152.565 52.8874 152.369 54.1373H155.874C155.8 53.1815 155.151 52.5198 154.17 52.5198ZM155.886 56.098H157.307C156.891 57.3969 155.727 58.2302 154.232 58.2302C152.124 58.2302 150.85 56.8087 150.85 54.7623C150.85 52.6791 152.32 51.3312 154.17 51.3312C156.143 51.3312 157.381 52.8507 157.381 54.8603C157.381 54.9584 157.381 55.0564 157.369 55.1789H152.345C152.492 56.5269 153.362 57.0293 154.207 57.0293C155.102 57.0293 155.616 56.6494 155.886 56.098ZM163.28 58.0709V57.1151C162.863 57.8258 162.104 58.2302 161.172 58.2302C159.591 58.2302 158.317 56.9558 158.317 54.7868C158.317 52.6301 159.591 51.3557 161.172 51.3557C162.104 51.3557 162.863 51.7601 163.28 52.4586V49.1868H164.738V58.0709H163.28ZM161.601 57.0415C162.52 57.0415 163.341 56.3798 163.341 54.7868C163.341 53.1938 162.52 52.5443 161.601 52.5443C160.584 52.5443 159.873 53.3531 159.873 54.7868C159.873 56.2328 160.584 57.0415 161.601 57.0415Z" fill="black"/>
<path d="M220.744 50.5709L213.244 57.5709M213.244 50.5709L220.744 57.5709" stroke="black" stroke-width="1.82" stroke-linecap="round" stroke-linejoin="round"/>
<path d="M70.8285 80.691V79.5554H71.9886V80.691H70.8285ZM82.1669 80.691H81.1866C81.1539 80.4786 81.1375 80.2989 81.1375 80.111C80.8435 80.5684 80.3615 80.7972 79.6426 80.7972C78.8175 80.7972 78.1312 80.3234 78.1312 79.5228C78.1312 78.4689 79.3158 78.1422 81.0885 77.9706V77.8726C81.0885 77.1864 80.7046 76.9331 80.1817 76.9331C79.6426 76.9331 79.3076 77.2109 79.2668 77.701H78.311C78.3845 76.7942 79.1197 76.1897 80.1899 76.1897C81.4153 76.1897 82.0443 76.7452 82.0443 78.0196V79.0081C82.0443 79.6943 82.0852 80.2825 82.1669 80.691ZM81.1294 78.8529V78.6405C79.9367 78.7549 79.1687 78.9264 79.1687 79.4738C79.1687 79.8414 79.471 80.0865 79.9285 80.0865C80.5657 80.0865 81.1294 79.8005 81.1294 78.8529ZM83.1805 80.691V74.7682H84.1527V76.9494C84.4304 76.4838 84.9369 76.2142 85.5578 76.2142C86.6116 76.2142 87.4612 77.0638 87.4612 78.5016C87.4612 79.9476 86.6116 80.7972 85.5578 80.7972C84.9369 80.7972 84.4304 80.5276 84.1527 80.0538V80.691H83.1805ZM85.2718 80.0048C85.9499 80.0048 86.4237 79.4656 86.4237 78.5016C86.4237 77.5458 85.9499 77.0066 85.2718 77.0066C84.6591 77.0066 84.1118 77.4396 84.1118 78.5016C84.1118 79.5636 84.6591 80.0048 85.2718 80.0048ZM90.294 80.7972C89.1912 80.7972 88.0883 80.0865 88.0883 78.4934C88.0883 76.9004 89.1912 76.1979 90.294 76.1979C91.3887 76.1979 92.4916 76.9004 92.4916 78.4934C92.4916 80.0865 91.3887 80.7972 90.294 80.7972ZM90.294 79.9966C90.9149 79.9966 91.4704 79.5718 91.4704 78.4934C91.4704 77.4233 90.9067 77.0066 90.294 77.0066C89.6732 77.0066 89.1095 77.4233 89.1095 78.4934C89.1095 79.5718 89.665 79.9966 90.294 79.9966ZM96.137 80.691V80.0701C95.8838 80.4949 95.4998 80.7972 94.7972 80.7972C93.7189 80.7972 93.3431 80.1191 93.3431 79.0408V76.2959H94.3153V78.7794C94.3153 79.4411 94.3969 79.9966 95.1485 79.9966C95.8021 79.9966 96.137 79.5636 96.137 78.6732V76.2959H97.1173V80.691H96.137ZM100.398 80.691H99.7367C98.8054 80.691 98.5439 80.4949 98.5439 79.5391V77.0311H97.8496V76.2959H98.5439V75.1522H99.5161V76.2959H100.398V77.0311H99.5161V79.3921C99.5161 79.8332 99.5896 79.9394 100.023 79.9394H100.398V80.691ZM101.168 77.4314V76.2959H102.328V77.4314H101.168ZM101.168 80.691V79.5554H102.328V80.691H101.168ZM103.404 80.691V74.7682H104.376V76.9494C104.654 76.4838 105.161 76.2142 105.782 76.2142C106.835 76.2142 107.685 77.0638 107.685 78.5016C107.685 79.9476 106.835 80.7972 105.782 80.7972C105.161 80.7972 104.654 80.5276 104.376 80.0538V80.691H103.404ZM105.496 80.0048C106.174 80.0048 106.648 79.4656 106.648 78.5016C106.648 77.5458 106.174 77.0066 105.496 77.0066C104.883 77.0066 104.336 77.4396 104.336 78.5016C104.336 79.5636 104.883 80.0048 105.496 80.0048ZM108.59 80.691V74.7682H109.562V80.691H108.59ZM114.461 80.691H113.481C113.448 80.4786 113.432 80.2989 113.432 80.111C113.138 80.5684 112.656 80.7972 111.937 80.7972C111.112 80.7972 110.425 80.3234 110.425 79.5228C110.425 78.4689 111.61 78.1422 113.383 77.9706V77.8726C113.383 77.1864 112.999 76.9331 112.476 76.9331C111.937 76.9331 111.602 77.2109 111.561 77.701H110.605C110.679 76.7942 111.414 76.1897 112.484 76.1897C113.71 76.1897 114.339 76.7452 114.339 78.0196V79.0081C114.339 79.6943 114.379 80.2825 114.461 80.691ZM113.424 78.8529V78.6405C112.231 78.7549 111.463 78.9264 111.463 79.4738C111.463 79.8414 111.765 80.0865 112.223 80.0865C112.86 80.0865 113.424 79.8005 113.424 78.8529ZM115.475 80.691V76.2959H116.447V76.9249C116.676 76.541 117.125 76.2142 117.844 76.2142C118.93 76.2142 119.306 76.8923 119.306 77.9624V80.691H118.334V78.232C118.334 77.5703 118.252 77.0066 117.476 77.0066C116.815 77.0066 116.447 77.4641 116.447 78.3546V80.691H115.475ZM120.437 80.691V74.7682H121.409V78.1585L123.067 76.2959H124.244L122.61 78.0686L124.432 80.691H123.272L121.948 78.7794L121.409 79.3594V80.691H120.437Z" fill="#3458EA"/>
<path d="M70.3384 81.3854H124.366V81.7938H70.3384V81.3854Z" fill="#3458EA"/>
<path d="M75.6411 95.5803C78.1236 95.5803 80.1401 97.5988 80.1401 100.093C80.1399 102.587 78.1235 104.605 75.6411 104.605C73.1589 104.604 71.1433 102.587 71.1431 100.093C71.1431 97.599 73.1588 95.5805 75.6411 95.5803Z" stroke="#3458EA" stroke-width="1.6091"/>
<path d="M75.6411 98.4804C76.5261 98.4804 77.2476 99.2003 77.2476 100.093C77.2475 100.985 76.526 101.705 75.6411 101.705C74.7564 101.705 74.0357 100.985 74.0356 100.093C74.0356 99.2004 74.7563 98.4806 75.6411 98.4804Z" fill="#3458EA" stroke="#3458EA" stroke-width="1.6091"/>
<path d="M87.5343 97.5925L89.6297 91.9659H90.7551L92.8738 97.5925H91.8028L91.3992 96.4594H88.9623L88.5665 97.5925H87.5343ZM89.2572 95.629H91.1043L90.173 92.9981L89.2572 95.629ZM93.4729 97.5925V91.9659H94.3964V97.5925H93.4729ZM96.2101 97.5925L95.0925 93.4172H96.0626L96.7688 96.4051L97.4673 93.4172H98.4219L99.1204 96.4051L99.8266 93.4172H100.797L99.6869 97.5925H98.7168L97.933 94.3407L97.1724 97.5925H96.2101ZM104.97 97.5925H104.038C104.007 97.3907 103.992 97.22 103.992 97.0415C103.712 97.4761 103.255 97.6934 102.572 97.6934C101.788 97.6934 101.136 97.2433 101.136 96.4827C101.136 95.4816 102.261 95.1712 103.945 95.0082V94.915C103.945 94.2631 103.58 94.0225 103.084 94.0225C102.572 94.0225 102.253 94.2864 102.215 94.7521H101.307C101.376 93.8906 102.075 93.3163 103.092 93.3163C104.256 93.3163 104.853 93.844 104.853 95.0547V95.9938C104.853 96.6457 104.892 97.2045 104.97 97.5925ZM103.984 95.8463V95.6446C102.851 95.7532 102.121 95.9162 102.121 96.4362C102.121 96.7854 102.409 97.0182 102.843 97.0182C103.449 97.0182 103.984 96.7466 103.984 95.8463ZM105.741 98.9507V98.2367H106.02C106.509 98.2367 106.68 98.2134 106.85 97.6857L106.881 97.5848L105.36 93.4172H106.377L107.339 96.4051L108.278 93.4172H109.256L107.712 97.7012C107.363 98.6713 107.114 98.9507 106.121 98.9507H105.741ZM111.086 94.9927L111.746 95.1168C112.607 95.2798 113.197 95.5747 113.197 96.3508C113.197 97.22 112.405 97.6934 111.373 97.6934C110.279 97.6934 109.588 97.0648 109.487 96.2421H110.403C110.512 96.7233 110.838 96.9717 111.389 96.9717C111.893 96.9717 112.289 96.7776 112.289 96.4439C112.289 96.1102 111.978 95.955 111.513 95.8696L110.845 95.7455C110.194 95.6213 109.596 95.3108 109.596 94.5736C109.596 93.7742 110.395 93.3241 111.358 93.3241C112.273 93.3241 112.987 93.7897 113.127 94.6357H112.219C112.118 94.2088 111.753 94.0536 111.296 94.0536C110.884 94.0536 110.496 94.201 110.496 94.5348C110.496 94.7909 110.698 94.9228 111.086 94.9927ZM119.339 97.5925H118.408C118.377 97.3907 118.361 97.22 118.361 97.0415C118.082 97.4761 117.624 97.6934 116.941 97.6934C116.157 97.6934 115.505 97.2433 115.505 96.4827C115.505 95.4816 116.631 95.1712 118.315 95.0082V94.915C118.315 94.2631 117.95 94.0225 117.453 94.0225C116.941 94.0225 116.623 94.2864 116.584 94.7521H115.676C115.746 93.8906 116.445 93.3163 117.461 93.3163C118.625 93.3163 119.223 93.844 119.223 95.0547V95.9938C119.223 96.6457 119.262 97.2045 119.339 97.5925ZM118.354 95.8463V95.6446C117.221 95.7532 116.491 95.9162 116.491 96.4362C116.491 96.7854 116.778 97.0182 117.213 97.0182C117.818 97.0182 118.354 96.7466 118.354 95.8463ZM120.302 97.5925V91.9659H121.226V97.5925H120.302ZM122.341 97.5925V91.9659H123.265V97.5925H122.341ZM126.211 97.6934C125.164 97.6934 124.116 97.0182 124.116 95.5049C124.116 93.9915 125.164 93.3241 126.211 93.3241C127.251 93.3241 128.299 93.9915 128.299 95.5049C128.299 97.0182 127.251 97.6934 126.211 97.6934ZM126.211 96.9329C126.801 96.9329 127.329 96.5293 127.329 95.5049C127.329 94.4882 126.793 94.0924 126.211 94.0924C125.621 94.0924 125.086 94.4882 125.086 95.5049C125.086 96.5293 125.614 96.9329 126.211 96.9329ZM129.8 97.5925L128.682 93.4172H129.652L130.359 96.4051L131.057 93.4172H132.012L132.71 96.4051L133.416 93.4172H134.387L133.277 97.5925H132.307L131.523 94.3407L130.762 97.5925H129.8ZM136.779 98.9507V93.4172H137.702V94.0381C137.966 93.5957 138.447 93.3396 139.037 93.3396C140.038 93.3396 140.846 94.1467 140.846 95.5126C140.846 96.8863 140.038 97.6934 139.037 97.6934C138.447 97.6934 137.966 97.4373 137.702 96.9872V98.9507H136.779ZM138.766 96.9406C139.41 96.9406 139.86 96.4284 139.86 95.5126C139.86 94.6046 139.41 94.0924 138.766 94.0924C138.184 94.0924 137.664 94.5037 137.664 95.5126C137.664 96.5215 138.184 96.9406 138.766 96.9406ZM143.537 97.6934C142.489 97.6934 141.441 97.0182 141.441 95.5049C141.441 93.9915 142.489 93.3241 143.537 93.3241C144.577 93.3241 145.624 93.9915 145.624 95.5049C145.624 97.0182 144.577 97.6934 143.537 97.6934ZM143.537 96.9329C144.127 96.9329 144.654 96.5293 144.654 95.5049C144.654 94.4882 144.119 94.0924 143.537 94.0924C142.947 94.0924 142.411 94.4882 142.411 95.5049C142.411 96.5293 142.939 96.9329 143.537 96.9329ZM146.48 98.9507V93.4172H147.403V94.0381C147.667 93.5957 148.149 93.3396 148.738 93.3396C149.739 93.3396 150.547 94.1467 150.547 95.5126C150.547 96.8863 149.739 97.6934 148.738 97.6934C148.149 97.6934 147.667 97.4373 147.403 96.9872V98.9507H146.48ZM148.467 96.9406C149.111 96.9406 149.561 96.4284 149.561 95.5126C149.561 94.6046 149.111 94.0924 148.467 94.0924C147.885 94.0924 147.365 94.5037 147.365 95.5126C147.365 96.5215 147.885 96.9406 148.467 96.9406ZM151.235 95.8929V95.0392H153.882V95.8929H151.235ZM157.447 97.5925V97.0027C157.207 97.4063 156.842 97.6934 156.174 97.6934C155.15 97.6934 154.793 97.0493 154.793 96.0248V93.4172H155.716V95.7765C155.716 96.4051 155.794 96.9329 156.508 96.9329C157.129 96.9329 157.447 96.5215 157.447 95.6756V93.4172H158.378V97.5925H157.447ZM159.485 98.9507V93.4172H160.409V94.0381C160.673 93.5957 161.154 93.3396 161.744 93.3396C162.745 93.3396 163.552 94.1467 163.552 95.5126C163.552 96.8863 162.745 97.6934 161.744 97.6934C161.154 97.6934 160.673 97.4373 160.409 96.9872V98.9507H159.485ZM161.472 96.9406C162.116 96.9406 162.566 96.4284 162.566 95.5126C162.566 94.6046 162.116 94.0924 161.472 94.0924C160.89 94.0924 160.37 94.5037 160.37 95.5126C160.37 96.5215 160.89 96.9406 161.472 96.9406ZM165.692 94.9927L166.352 95.1168C167.213 95.2798 167.803 95.5747 167.803 96.3508C167.803 97.22 167.012 97.6934 165.979 97.6934C164.885 97.6934 164.194 97.0648 164.093 96.2421H165.009C165.118 96.7233 165.444 96.9717 165.995 96.9717C166.499 96.9717 166.895 96.7776 166.895 96.4439C166.895 96.1102 166.585 95.955 166.119 95.8696L165.452 95.7455C164.8 95.6213 164.202 95.3108 164.202 94.5736C164.202 93.7742 165.002 93.3241 165.964 93.3241C166.88 93.3241 167.594 93.7897 167.733 94.6357H166.825C166.724 94.2088 166.36 94.0536 165.902 94.0536C165.49 94.0536 165.102 94.201 165.102 94.5348C165.102 94.7909 165.304 94.9228 165.692 94.9927ZM173.946 97.5925H173.014C172.983 97.3907 172.968 97.22 172.968 97.0415C172.688 97.4761 172.23 97.6934 171.547 97.6934C170.764 97.6934 170.112 97.2433 170.112 96.4827C170.112 95.4816 171.237 95.1712 172.921 95.0082V94.915C172.921 94.2631 172.556 94.0225 172.06 94.0225C171.547 94.0225 171.229 94.2864 171.19 94.7521H170.282C170.352 93.8906 171.051 93.3163 172.067 93.3163C173.232 93.3163 173.829 93.844 173.829 95.0547V95.9938C173.829 96.6457 173.868 97.2045 173.946 97.5925ZM172.96 95.8463V95.6446C171.827 95.7532 171.097 95.9162 171.097 96.4362C171.097 96.7854 171.384 97.0182 171.819 97.0182C172.424 97.0182 172.96 96.7466 172.96 95.8463ZM174.909 97.5925V93.4172H175.832V94.0148C176.049 93.65 176.476 93.3396 177.159 93.3396C178.191 93.3396 178.548 93.9837 178.548 95.0004V97.5925H177.625V95.2565C177.625 94.6279 177.547 94.0924 176.81 94.0924C176.181 94.0924 175.832 94.527 175.832 95.3729V97.5925H174.909ZM182.51 97.5925V96.9872C182.246 97.4373 181.765 97.6934 181.175 97.6934C180.174 97.6934 179.366 96.8863 179.366 95.5126C179.366 94.1467 180.174 93.3396 181.175 93.3396C181.765 93.3396 182.246 93.5957 182.51 94.0381V91.9659H183.433V97.5925H182.51ZM181.446 96.9406C182.028 96.9406 182.548 96.5215 182.548 95.5126C182.548 94.5037 182.028 94.0924 181.446 94.0924C180.802 94.0924 180.352 94.6046 180.352 95.5126C180.352 96.4284 180.802 96.9406 181.446 96.9406ZM186.322 97.5925V93.4172H187.223V94.17C187.424 93.6888 187.82 93.4094 188.387 93.3939C188.449 93.3939 188.519 93.3939 188.589 93.4017V94.3407C188.433 94.3175 188.325 94.3097 188.208 94.3097C187.572 94.3097 187.246 94.6201 187.246 95.4428V97.5925H186.322ZM191.019 94.0769C190.522 94.0769 190.002 94.3097 189.878 95.1013H192.098C192.051 94.496 191.64 94.0769 191.019 94.0769ZM192.105 96.343H193.006C192.742 97.1657 192.005 97.6934 191.058 97.6934C189.723 97.6934 188.916 96.7932 188.916 95.4971C188.916 94.1778 189.847 93.3241 191.019 93.3241C192.268 93.3241 193.052 94.2864 193.052 95.5592C193.052 95.6213 193.052 95.6834 193.045 95.761H189.863C189.956 96.6147 190.507 96.9329 191.042 96.9329C191.609 96.9329 191.935 96.6923 192.105 96.343ZM196.788 97.5925V96.9872C196.524 97.4373 196.043 97.6934 195.453 97.6934C194.452 97.6934 193.645 96.8863 193.645 95.5126C193.645 94.1467 194.452 93.3396 195.453 93.3396C196.043 93.3396 196.524 93.5957 196.788 94.0381V91.9659H197.712V97.5925H196.788ZM195.725 96.9406C196.307 96.9406 196.827 96.5215 196.827 95.5126C196.827 94.5037 196.307 94.0924 195.725 94.0924C195.081 94.0924 194.631 94.6046 194.631 95.5126C194.631 96.4284 195.081 96.9406 195.725 96.9406ZM198.828 97.5925V93.4172H199.751V97.5925H198.828ZM198.828 92.8817V91.9659H199.751V92.8817H198.828ZM200.866 97.5925V93.4172H201.767V94.17C201.968 93.6888 202.364 93.4094 202.931 93.3939C202.993 93.3939 203.063 93.3939 203.133 93.4017V94.3407C202.977 94.3175 202.869 94.3097 202.752 94.3097C202.116 94.3097 201.79 94.6201 201.79 95.4428V97.5925H200.866ZM205.563 94.0769C205.066 94.0769 204.546 94.3097 204.422 95.1013H206.642C206.595 94.496 206.184 94.0769 205.563 94.0769ZM206.649 96.343H207.55C207.286 97.1657 206.549 97.6934 205.602 97.6934C204.267 97.6934 203.46 96.7932 203.46 95.4971C203.46 94.1778 204.391 93.3241 205.563 93.3241C206.812 93.3241 207.596 94.2864 207.596 95.5592C207.596 95.6213 207.596 95.6834 207.589 95.761H204.407C204.5 96.6147 205.051 96.9329 205.586 96.9329C206.153 96.9329 206.479 96.6923 206.649 96.343ZM211.255 96.1645H212.163C211.969 97.1269 211.123 97.6934 210.199 97.6934C208.942 97.6934 208.181 96.7932 208.181 95.4971C208.181 94.2321 208.996 93.3241 210.246 93.3241C211.2 93.3241 211.961 93.9449 212.116 94.8607H211.216C211.115 94.3718 210.727 94.0924 210.246 94.0924C209.679 94.0924 209.152 94.5115 209.152 95.4971C209.152 96.506 209.687 96.9329 210.246 96.9329C210.789 96.9329 211.162 96.5914 211.255 96.1645ZM214.965 97.5925H214.336C213.451 97.5925 213.203 97.4063 213.203 96.4983V94.1157H212.543V93.4172H213.203V92.3307H214.127V93.4172H214.965V94.1157H214.127V96.3586C214.127 96.7776 214.196 96.8785 214.608 96.8785H214.965V97.5925ZM217.07 94.9927L217.729 95.1168C218.591 95.2798 219.181 95.5747 219.181 96.3508C219.181 97.22 218.389 97.6934 217.357 97.6934C216.263 97.6934 215.572 97.0648 215.471 96.2421H216.387C216.496 96.7233 216.821 96.9717 217.372 96.9717C217.877 96.9717 218.273 96.7776 218.273 96.4439C218.273 96.1102 217.962 95.955 217.497 95.8696L216.829 95.7455C216.177 95.6213 215.58 95.3108 215.58 94.5736C215.58 93.7742 216.379 93.3241 217.341 93.3241C218.257 93.3241 218.971 93.7897 219.111 94.6357H218.203C218.102 94.2088 217.737 94.0536 217.279 94.0536C216.868 94.0536 216.48 94.201 216.48 94.5348C216.48 94.7909 216.682 94.9228 217.07 94.9927ZM88.2871 108.593V105.116H87.705V104.417H88.2871V104.13C88.2871 103.214 88.5587 102.966 89.5754 102.966H90.0488V103.672H89.6918C89.2883 103.672 89.2106 103.734 89.2106 104.122V104.417H90.0488V105.116H89.2106V108.593H88.2871ZM90.7065 108.593V104.417H91.6068V105.17C91.8086 104.689 92.2044 104.409 92.7709 104.394C92.833 104.394 92.9029 104.394 92.9727 104.402V105.341C92.8175 105.317 92.7088 105.31 92.5924 105.31C91.956 105.31 91.6301 105.62 91.6301 106.443V108.593H90.7065ZM95.3954 108.693C94.3476 108.693 93.2999 108.018 93.2999 106.505C93.2999 104.992 94.3476 104.324 95.3954 104.324C96.4353 104.324 97.483 104.992 97.483 106.505C97.483 108.018 96.4353 108.693 95.3954 108.693ZM95.3954 107.933C95.9852 107.933 96.5129 107.529 96.5129 106.505C96.5129 105.488 95.9774 105.092 95.3954 105.092C94.8055 105.092 94.27 105.488 94.27 106.505C94.27 107.529 94.7978 107.933 95.3954 107.933ZM98.3385 108.593V104.417H99.2621V105.015C99.4794 104.65 99.8907 104.34 100.519 104.34C101.171 104.34 101.552 104.603 101.738 105.061C102.071 104.572 102.568 104.34 103.15 104.34C104.159 104.34 104.524 104.984 104.524 106V108.593H103.6V106.257C103.6 105.628 103.515 105.092 102.801 105.092C102.227 105.092 101.893 105.527 101.893 106.365V108.593H100.969V106.257C100.969 105.628 100.884 105.092 100.17 105.092C99.5958 105.092 99.2621 105.527 99.2621 106.365V108.593H98.3385ZM109.139 108.593V102.966H110.062V105.015C110.279 104.65 110.706 104.34 111.389 104.34C112.421 104.34 112.778 104.984 112.778 106V108.593H111.855V106.257C111.855 105.628 111.777 105.092 111.04 105.092C110.411 105.092 110.062 105.527 110.062 106.373V108.593H109.139ZM115.832 108.593H115.204C114.319 108.593 114.071 108.406 114.071 107.498V105.116H113.411V104.417H114.071V103.331H114.994V104.417H115.832V105.116H114.994V107.359C114.994 107.778 115.064 107.879 115.475 107.879H115.832V108.593ZM118.667 108.593H118.038C117.154 108.593 116.905 108.406 116.905 107.498V105.116H116.245V104.417H116.905V103.331H117.829V104.417H118.667V105.116H117.829V107.359C117.829 107.778 117.899 107.879 118.31 107.879H118.667V108.593ZM119.491 109.951V104.417H120.415V105.038C120.679 104.596 121.16 104.34 121.75 104.34C122.751 104.34 123.558 105.147 123.558 106.513C123.558 107.886 122.751 108.693 121.75 108.693C121.16 108.693 120.679 108.437 120.415 107.987V109.951H119.491ZM121.478 107.941C122.122 107.941 122.572 107.428 122.572 106.513C122.572 105.605 122.122 105.092 121.478 105.092C120.896 105.092 120.376 105.504 120.376 106.513C120.376 107.522 120.896 107.941 121.478 107.941ZM125.698 105.993L126.358 106.117C127.219 106.28 127.809 106.575 127.809 107.351C127.809 108.22 127.018 108.693 125.985 108.693C124.891 108.693 124.2 108.065 124.099 107.242H125.015C125.124 107.723 125.45 107.972 126.001 107.972C126.505 107.972 126.901 107.778 126.901 107.444C126.901 107.11 126.591 106.955 126.125 106.87L125.458 106.745C124.806 106.621 124.208 106.311 124.208 105.574C124.208 104.774 125.007 104.324 125.97 104.324C126.886 104.324 127.6 104.79 127.739 105.636H126.831C126.73 105.209 126.366 105.054 125.908 105.054C125.496 105.054 125.108 105.201 125.108 105.535C125.108 105.791 125.31 105.923 125.698 105.993ZM128.546 105.496V104.417H129.648V105.496H128.546ZM128.546 108.593V107.514H129.648V108.593H128.546ZM130.228 108.593L132.463 102.966H133.394L131.151 108.593H130.228ZM132.532 108.593L134.767 102.966H135.698L133.455 108.593H132.532ZM136.362 108.593V102.966H137.286V105.015C137.503 104.65 137.93 104.34 138.613 104.34C139.645 104.34 140.002 104.984 140.002 106V108.593H139.078V106.257C139.078 105.628 139.001 105.092 138.263 105.092C137.635 105.092 137.286 105.527 137.286 106.373V108.593H136.362ZM143.684 108.593V108.003C143.443 108.406 143.078 108.693 142.411 108.693C141.387 108.693 141.03 108.049 141.03 107.025V104.417H141.953V106.776C141.953 107.405 142.031 107.933 142.745 107.933C143.366 107.933 143.684 107.522 143.684 106.676V104.417H144.615V108.593H143.684ZM145.722 108.593V104.417H146.646V105.015C146.863 104.65 147.274 104.34 147.903 104.34C148.555 104.34 148.935 104.603 149.121 105.061C149.455 104.572 149.952 104.34 150.534 104.34C151.543 104.34 151.907 104.984 151.907 106V108.593H150.984V106.257C150.984 105.628 150.898 105.092 150.185 105.092C149.61 105.092 149.276 105.527 149.276 106.365V108.593H148.353V106.257C148.353 105.628 148.268 105.092 147.554 105.092C146.979 105.092 146.646 105.527 146.646 106.365V108.593H145.722ZM156.514 108.593H155.583C155.552 108.391 155.536 108.22 155.536 108.042C155.257 108.476 154.799 108.693 154.116 108.693C153.332 108.693 152.68 108.243 152.68 107.483C152.68 106.482 153.805 106.171 155.49 106.008V105.915C155.49 105.263 155.125 105.023 154.628 105.023C154.116 105.023 153.798 105.286 153.759 105.752H152.851C152.921 104.891 153.619 104.316 154.636 104.316C155.8 104.316 156.398 104.844 156.398 106.055V106.994C156.398 107.646 156.436 108.204 156.514 108.593ZM155.528 106.846V106.645C154.395 106.753 153.666 106.916 153.666 107.436C153.666 107.785 153.953 108.018 154.388 108.018C154.993 108.018 155.528 107.747 155.528 106.846ZM157.477 108.593V104.417H158.4V105.015C158.618 104.65 159.045 104.34 159.728 104.34C160.76 104.34 161.117 104.984 161.117 106V108.593H160.193V106.257C160.193 105.628 160.116 105.092 159.378 105.092C158.75 105.092 158.4 105.527 158.4 106.373V108.593H157.477ZM162.098 108.593V107.514H163.2V108.593H162.098ZM166.043 108.593H165.414C164.529 108.593 164.281 108.406 164.281 107.498V105.116H163.621V104.417H164.281V103.331H165.205V104.417H166.043V105.116H165.205V107.359C165.205 107.778 165.274 107.879 165.686 107.879H166.043V108.593ZM168.646 105.077C168.149 105.077 167.629 105.31 167.505 106.101H169.725C169.678 105.496 169.267 105.077 168.646 105.077ZM169.732 107.343H170.633C170.369 108.166 169.632 108.693 168.685 108.693C167.35 108.693 166.543 107.793 166.543 106.497C166.543 105.178 167.474 104.324 168.646 104.324C169.895 104.324 170.679 105.286 170.679 106.559C170.679 106.621 170.679 106.683 170.672 106.761H167.49C167.583 107.615 168.134 107.933 168.669 107.933C169.236 107.933 169.562 107.692 169.732 107.343ZM174.338 107.165H175.246C175.052 108.127 174.206 108.693 173.282 108.693C172.025 108.693 171.264 107.793 171.264 106.497C171.264 105.232 172.079 104.324 173.329 104.324C174.283 104.324 175.044 104.945 175.199 105.861H174.299C174.198 105.372 173.81 105.092 173.329 105.092C172.762 105.092 172.235 105.511 172.235 106.497C172.235 107.506 172.77 107.933 173.329 107.933C173.872 107.933 174.245 107.591 174.338 107.165ZM176.038 108.593V102.966H176.961V105.015C177.179 104.65 177.605 104.34 178.288 104.34C179.321 104.34 179.678 104.984 179.678 106V108.593H178.754V106.257C178.754 105.628 178.676 105.092 177.939 105.092C177.311 105.092 176.961 105.527 176.961 106.373V108.593H176.038Z" fill="#0A0A0A"/>
<path d="M75.6411 117.982C78.1236 117.982 80.1401 120 80.1401 122.495C80.1399 124.989 78.1235 127.006 75.6411 127.006C73.1589 127.006 71.1433 124.988 71.1431 122.495C71.1431 120.001 73.1588 117.982 75.6411 117.982Z" stroke="#929292" stroke-width="1.6091"/>
<path d="M92.0278 123.585H92.9979C92.7651 124.85 91.764 125.595 90.4679 125.595C88.7993 125.595 87.8137 124.423 87.8137 122.669C87.8137 120.915 88.8692 119.767 90.5222 119.767C91.7795 119.767 92.7418 120.543 92.9669 121.777H91.989C91.826 121.055 91.275 120.597 90.4834 120.597C89.5599 120.597 88.8459 121.334 88.8459 122.669C88.8459 124.004 89.5444 124.765 90.4989 124.765C91.275 124.765 91.8571 124.361 92.0278 123.585ZM95.6455 125.595C94.5978 125.595 93.55 124.92 93.55 123.406C93.55 121.893 94.5978 121.226 95.6455 121.226C96.6854 121.226 97.7331 121.893 97.7331 123.406C97.7331 124.92 96.6854 125.595 95.6455 125.595ZM95.6455 124.834C96.2353 124.834 96.763 124.431 96.763 123.406C96.763 122.39 96.2275 121.994 95.6455 121.994C95.0556 121.994 94.5201 122.39 94.5201 123.406C94.5201 124.431 95.0479 124.834 95.6455 124.834ZM98.5886 125.494V121.319H99.5122V121.916C99.7295 121.552 100.156 121.241 100.839 121.241C101.871 121.241 102.228 121.885 102.228 122.902V125.494H101.305V123.158C101.305 122.53 101.227 121.994 100.49 121.994C99.8614 121.994 99.5122 122.429 99.5122 123.275V125.494H98.5886ZM105.282 125.494H104.654C103.769 125.494 103.521 125.308 103.521 124.4V122.017H102.861V121.319H103.521V120.232H104.444V121.319H105.282V122.017H104.444V124.26C104.444 124.679 104.514 124.78 104.925 124.78H105.282V125.494ZM106.107 125.494V121.319H107.03V125.494H106.107ZM106.107 120.783V119.868H107.03V120.783H106.107ZM108.146 125.494V121.319H109.069V121.916C109.287 121.552 109.713 121.241 110.396 121.241C111.429 121.241 111.786 121.885 111.786 122.902V125.494H110.862V123.158C110.862 122.53 110.784 121.994 110.047 121.994C109.418 121.994 109.069 122.429 109.069 123.275V125.494H108.146ZM115.467 125.494V124.904C115.227 125.308 114.862 125.595 114.195 125.595C113.17 125.595 112.813 124.951 112.813 123.926V121.319H113.737V123.678C113.737 124.307 113.814 124.834 114.528 124.834C115.149 124.834 115.467 124.423 115.467 123.577V121.319H116.399V125.494H115.467ZM119.345 121.978C118.848 121.978 118.328 122.211 118.204 123.003H120.424C120.377 122.398 119.966 121.978 119.345 121.978ZM120.431 124.245H121.332C121.068 125.067 120.331 125.595 119.384 125.595C118.049 125.595 117.242 124.695 117.242 123.399C117.242 122.079 118.173 121.226 119.345 121.226C120.594 121.226 121.378 122.188 121.378 123.461C121.378 123.523 121.378 123.585 121.371 123.663H118.189C118.282 124.516 118.833 124.834 119.368 124.834C119.935 124.834 120.261 124.594 120.431 124.245ZM124.001 125.494V119.868H124.924V121.94C125.188 121.497 125.669 121.241 126.259 121.241C127.26 121.241 128.067 122.048 128.067 123.414C128.067 124.788 127.26 125.595 126.259 125.595C125.669 125.595 125.188 125.339 124.924 124.889V125.494H124.001ZM125.988 124.842C126.632 124.842 127.082 124.33 127.082 123.414C127.082 122.506 126.632 121.994 125.988 121.994C125.406 121.994 124.886 122.405 124.886 123.414C124.886 124.423 125.406 124.842 125.988 124.842ZM128.927 125.494V119.868H129.851V125.494H128.927ZM132.797 125.595C131.75 125.595 130.702 124.92 130.702 123.406C130.702 121.893 131.75 121.226 132.797 121.226C133.837 121.226 134.885 121.893 134.885 123.406C134.885 124.92 133.837 125.595 132.797 125.595ZM132.797 124.834C133.387 124.834 133.915 124.431 133.915 123.406C133.915 122.39 133.379 121.994 132.797 121.994C132.208 121.994 131.672 122.39 131.672 123.406C131.672 124.431 132.2 124.834 132.797 124.834ZM138.55 124.066H139.458C139.264 125.028 138.418 125.595 137.495 125.595C136.237 125.595 135.477 124.695 135.477 123.399C135.477 122.134 136.292 121.226 137.541 121.226C138.496 121.226 139.256 121.847 139.411 122.762H138.511C138.41 122.273 138.022 121.994 137.541 121.994C136.975 121.994 136.447 122.413 136.447 123.399C136.447 124.408 136.982 124.834 137.541 124.834C138.084 124.834 138.457 124.493 138.55 124.066ZM140.25 125.494V119.868H141.174V123.088L142.749 121.319H143.867L142.314 123.003L144.045 125.494H142.943L141.686 123.678L141.174 124.229V125.494H140.25ZM144.54 125.494V121.319H145.463V125.494H144.54ZM144.54 120.783V119.868H145.463V120.783H144.54ZM146.578 125.494V121.319H147.502V121.916C147.719 121.552 148.146 121.241 148.829 121.241C149.861 121.241 150.218 121.885 150.218 122.902V125.494H149.295V123.158C149.295 122.53 149.217 121.994 148.48 121.994C147.851 121.994 147.502 122.429 147.502 123.275V125.494H146.578ZM155.072 121.319V125.028C155.072 126.379 154.296 126.953 153.124 126.953C152.092 126.953 151.432 126.472 151.277 125.649H152.201C152.317 126.006 152.573 126.224 153.124 126.224C153.753 126.224 154.156 125.929 154.156 125.176V124.695C153.892 125.145 153.427 125.393 152.845 125.393C151.859 125.393 151.044 124.656 151.044 123.313C151.044 121.986 151.859 121.241 152.845 121.241C153.427 121.241 153.892 121.497 154.156 121.94V121.319H155.072ZM153.109 124.648C153.691 124.648 154.195 124.283 154.195 123.313C154.195 122.351 153.691 121.994 153.109 121.994C152.488 121.994 152.03 122.452 152.03 123.313C152.03 124.19 152.488 124.648 153.109 124.648Z" fill="#0A0A0A"/>
<rect x="70.3384" y="139.114" width="65.6909" height="26.0709" rx="13.0354" fill="#D2E3FE"/>
<path d="M83.0655 155.65V147.95H85.094L86.9525 154.184L88.8323 147.95H90.8501V155.65H89.6288V149.044L87.5897 155.65H86.3259L84.2869 149.044V155.65H83.0655ZM97.2265 155.65H96.1008C96.0477 155.363 96.0264 155.119 96.0264 154.885C95.6654 155.469 95.0494 155.788 94.083 155.788C93.0103 155.788 92.1183 155.182 92.1183 154.131C92.1183 152.772 93.6475 152.368 95.9733 152.124V151.986C95.9733 151.03 95.4317 150.69 94.7414 150.69C93.9874 150.69 93.5413 151.083 93.4882 151.752H92.3625C92.4581 150.552 93.467 149.809 94.7414 149.809C96.3238 149.809 97.0778 150.552 97.0778 152.177V153.473C97.0778 154.396 97.1309 155.119 97.2265 155.65ZM96.0371 153.26V152.942C94.391 153.111 93.3396 153.345 93.3396 154.089C93.3396 154.598 93.7325 154.938 94.3803 154.938C95.2406 154.938 96.0371 154.545 96.0371 153.26ZM98.6203 155.65V149.936H99.746V150.775C100.054 150.255 100.628 149.83 101.573 149.83C102.975 149.83 103.463 150.722 103.463 152.071V155.65H102.337V152.389C102.337 151.518 102.21 150.775 101.159 150.775C100.266 150.775 99.746 151.391 99.746 152.58V155.65H98.6203ZM109.682 155.65H108.557C108.503 155.363 108.482 155.119 108.482 154.885C108.121 155.469 107.505 155.788 106.539 155.788C105.466 155.788 104.574 155.182 104.574 154.131C104.574 152.772 106.103 152.368 108.429 152.124V151.986C108.429 151.03 107.888 150.69 107.197 150.69C106.443 150.69 105.997 151.083 105.944 151.752H104.818C104.914 150.552 105.923 149.809 107.197 149.809C108.78 149.809 109.534 150.552 109.534 152.177V153.473C109.534 154.396 109.587 155.119 109.682 155.65ZM108.493 153.26V152.942C106.847 153.111 105.795 153.345 105.795 154.089C105.795 154.598 106.188 154.938 106.836 154.938C107.696 154.938 108.493 154.545 108.493 153.26ZM116.089 149.936V155.044C116.089 156.818 115.112 157.646 113.497 157.646C112.138 157.646 111.246 157.02 111.055 155.883H112.202C112.351 156.372 112.69 156.722 113.497 156.722C114.358 156.722 114.974 156.329 114.974 155.214V154.566C114.613 155.172 114.018 155.533 113.168 155.533C111.862 155.533 110.726 154.513 110.726 152.687C110.726 150.86 111.862 149.83 113.168 149.83C114.018 149.83 114.613 150.202 114.974 150.818V149.936H116.089ZM113.476 154.609C114.305 154.609 115.016 154.067 115.016 152.687C115.016 151.306 114.305 150.764 113.476 150.764C112.584 150.764 111.926 151.444 111.926 152.687C111.926 153.929 112.584 154.609 113.476 154.609ZM120.125 150.754C119.393 150.754 118.66 151.104 118.49 152.262H121.687C121.623 151.37 121.007 150.754 120.125 150.754ZM121.665 153.961H122.78C122.472 155.023 121.506 155.788 120.168 155.788C118.352 155.788 117.3 154.524 117.3 152.793C117.3 150.987 118.543 149.83 120.125 149.83C121.803 149.83 122.855 151.147 122.855 152.835C122.855 152.931 122.855 153.016 122.844 153.122H118.479C118.596 154.365 119.393 154.832 120.157 154.832C120.964 154.832 121.432 154.481 121.665 153.961Z" fill="black"/>
<rect x="172.803" y="139.114" width="51.6909" height="26.0709" rx="13.0354" fill="#2C63C0"/>
<path d="M185.53 155.65V147.95H187.718C190.171 147.95 191.977 148.863 191.977 151.795C191.977 154.736 190.171 155.65 187.718 155.65H185.53ZM186.762 154.609H187.697C189.237 154.609 190.702 154.301 190.702 151.795C190.702 149.299 189.237 148.991 187.697 148.991H186.762V154.609ZM195.708 155.788C194.317 155.788 192.894 154.874 192.894 152.803C192.894 150.733 194.317 149.83 195.708 149.83C197.099 149.83 198.522 150.733 198.522 152.803C198.522 154.874 197.099 155.788 195.708 155.788ZM195.708 154.832C196.547 154.832 197.322 154.258 197.322 152.803C197.322 151.349 196.547 150.775 195.708 150.775C194.869 150.775 194.094 151.349 194.094 152.803C194.094 154.258 194.869 154.832 195.708 154.832ZM199.747 155.65V149.936H200.873V150.775C201.181 150.255 201.754 149.83 202.7 149.83C204.102 149.83 204.59 150.722 204.59 152.071V155.65H203.464V152.389C203.464 151.518 203.337 150.775 202.285 150.775C201.393 150.775 200.873 151.391 200.873 152.58V155.65H199.747ZM208.568 150.754C207.836 150.754 207.103 151.104 206.933 152.262H210.13C210.066 151.37 209.45 150.754 208.568 150.754ZM210.108 153.961H211.223C210.915 155.023 209.949 155.788 208.611 155.788C206.795 155.788 205.743 154.524 205.743 152.793C205.743 150.987 206.986 149.83 208.568 149.83C210.246 149.83 211.298 151.147 211.298 152.835C211.298 152.931 211.298 153.016 211.287 153.122H206.922C207.039 154.365 207.836 154.832 208.6 154.832C209.407 154.832 209.875 154.481 210.108 153.961Z" fill="white"/>
</g>
</g>
<defs>
<filter id="filter0_d_527_14830" x="37.6614" y="19.2953" width="219.51" height="176.933" filterUnits="userSpaceOnUse" color-interpolation-filters="sRGB">
<feFlood flood-opacity="0" result="BackgroundImageFix"/>
<feColorMatrix in="SourceAlpha" type="matrix" values="0 0 0 0 0 0 0 0 0 0 0 0 0 0 0 0 0 0 127 0" result="hardAlpha"/>
<feOffset dy="1.63386"/>
<feGaussianBlur stdDeviation="8.16929"/>
<feComposite in2="hardAlpha" operator="out"/>
<feColorMatrix type="matrix" values="0 0 0 0 0 0 0 0 0 0 0 0 0 0 0 0 0 0 0.25 0"/>
<feBlend mode="normal" in2="BackgroundImageFix" result="effect1_dropShadow_527_14830"/>
<feBlend mode="normal" in="SourceGraphic" in2="effect1_dropShadow_527_14830" result="shape"/>
</filter>
<clipPath id="clip0_527_14830">
<path d="M0 6C0 2.68629 2.68629 0 6 0H282C285.314 0 288 2.68629 288 6V183C288 186.314 285.314 189 282 189H5.99999C2.68629 189 0 186.314 0 183V6Z" fill="white"/>
</clipPath>
</defs>
</svg>
