<svg width="54" height="54" viewBox="0 0 54 54" fill="none" xmlns="http://www.w3.org/2000/svg">
<rect width="53.6" height="53.6" rx="26.8" fill="#FFD8C2"/>
<path d="M26.8008 32.3998H26.8148M26.8008 21.1998V26.7998M31.4376 12.7998C32.1801 12.8 32.8922 13.0951 33.4172 13.6202L39.9804 20.1834C40.5055 20.7084 40.8006 21.4205 40.8008 22.163V31.4366C40.8006 32.1792 40.5055 32.8912 39.9804 33.4162L33.4172 39.9794C32.8922 40.5045 32.1801 40.7996 31.4376 40.7998H22.164C21.4214 40.7996 20.7094 40.5045 20.1844 39.9794L13.6212 33.4162C13.096 32.8912 12.8009 32.1792 12.8008 31.4366V22.163C12.8009 21.4205 13.096 20.7084 13.6212 20.1834L20.1844 13.6202C20.7094 13.0951 21.4214 12.8 22.164 12.7998H31.4376Z" stroke="#C51D07" stroke-width="2.8" stroke-linecap="round" stroke-linejoin="round"/>
</svg>
