<svg width="54" height="54" viewBox="0 0 54 54" fill="none" xmlns="http://www.w3.org/2000/svg">
<rect width="53.6" height="53.6" rx="26.8" fill="#E0F1FF"/>
<path d="M26.8008 21.2V26.8M26.8008 32.4H26.8148M21.0608 38C23.7328 39.3706 26.8065 39.7419 29.728 39.0469C32.6495 38.3518 35.2268 36.6361 36.9952 34.209C38.7637 31.7819 39.6072 28.803 39.3736 25.809C39.14 22.815 37.8448 20.0029 35.7213 17.8794C33.5978 15.7559 30.7857 14.4607 27.7918 14.2272C24.7978 13.9936 21.8188 14.837 19.3917 16.6055C16.9646 18.374 15.2489 20.9512 14.5539 23.8727C13.8588 26.7942 14.2301 29.868 15.6008 32.54L12.8008 40.8L21.0608 38Z" stroke="#0083E0" stroke-width="2.8" stroke-linecap="round" stroke-linejoin="round"/>
</svg>
