<svg width="34" height="34" viewBox="0 0 34 34" fill="none" xmlns="http://www.w3.org/2000/svg">
<path d="M12.8003 16.9999L15.6003 19.7999L21.2003 14.1999M28.2003 18.3999C28.2003 25.3999 23.3003 28.8999 17.4763 30.9299C17.1713 31.0332 16.84 31.0283 16.5383 30.9159C10.7003 28.8999 5.80029 25.3999 5.80029 18.3999V8.5999C5.80029 8.22859 5.94779 7.8725 6.21034 7.60995C6.47289 7.3474 6.82899 7.1999 7.20029 7.1999C10.0003 7.1999 13.5003 5.5199 15.9363 3.3919C16.2329 3.1385 16.6102 2.99927 17.0003 2.99927C17.3904 2.99927 17.7677 3.1385 18.0643 3.3919C20.5143 5.5339 24.0003 7.1999 26.8003 7.1999C27.1716 7.1999 27.5277 7.3474 27.7902 7.60995C28.0528 7.8725 28.2003 8.22859 28.2003 8.5999V18.3999Z" stroke="white" stroke-width="2.8" stroke-linecap="round" stroke-linejoin="round"/>
</svg>
