<svg width="54" height="54" viewBox="0 0 54 54" fill="none" xmlns="http://www.w3.org/2000/svg">
<rect width="53.6" height="53.6" rx="26.8" fill="#7BF9C9"/>
<path d="M40.8008 25.512V26.8C40.7991 29.819 39.8215 32.7566 38.0138 35.1746C36.2062 37.5926 33.6654 39.3615 30.7703 40.2175C27.8752 41.0735 24.7809 40.9707 21.949 39.9244C19.1171 38.8782 16.6993 36.9445 15.0561 34.4119C13.413 31.8793 12.6325 28.8833 12.8311 25.8708C13.0298 22.8584 14.1969 19.9909 16.1584 17.6959C18.1199 15.401 20.7707 13.8015 23.7154 13.1362C26.6602 12.4709 29.7412 12.7753 32.4988 14.004M22.6008 25.4L26.8008 29.6L40.8008 15.6" stroke="#008064" stroke-width="2.8" stroke-linecap="round" stroke-linejoin="round"/>
</svg>
