<svg width="54" height="54" viewBox="0 0 54 54" fill="none" xmlns="http://www.w3.org/2000/svg">
<rect width="53.6" height="53.6" rx="26.8" fill="#FFEFC7"/>
<path d="M26.8006 22.6001V28.2001M26.8006 33.8001H26.8146M40.4226 35.2001L29.2226 15.6001C28.9784 15.1692 28.6242 14.8108 28.1963 14.5614C27.7683 14.312 27.2819 14.1807 26.7866 14.1807C26.2913 14.1807 25.8048 14.312 25.3769 14.5614C24.9489 14.8108 24.5948 15.1692 24.3506 15.6001L13.1506 35.2001C12.9037 35.6276 12.7743 36.1128 12.7754 36.6064C12.7765 37.1001 12.9081 37.5847 13.1568 38.0111C13.4055 38.4375 13.7626 38.7905 14.1918 39.0345C14.6209 39.2784 15.107 39.4046 15.6006 39.4001H38.0006C38.4918 39.3996 38.9743 39.2699 39.3996 39.0239C39.8248 38.778 40.1779 38.4244 40.4233 37.9989C40.6687 37.5733 40.7978 37.0907 40.7977 36.5994C40.7976 36.1081 40.6682 35.6256 40.4226 35.2001Z" stroke="#CC6205" stroke-width="2.8" stroke-linecap="round" stroke-linejoin="round"/>
</svg>
