<svg width="24" height="24" viewBox="0 0 24 24" fill="none" xmlns="http://www.w3.org/2000/svg">
<circle cx="12" cy="12" r="12" fill="#111111"/>
<path fill-rule="evenodd" clip-rule="evenodd" d="M11.3168 19.8363C11.5272 19.9443 11.7637 20 12 20C12.0638 20 12.1277 19.996 12.191 19.9879C12.2691 19.9779 12.3467 19.9619 12.4221 19.9399C12.5121 19.9138 12.5997 19.8792 12.6832 19.8363L19.3168 16.4426C19.5329 16.3328 19.7061 16.1753 19.8241 15.9899C19.8836 15.8961 19.9291 15.7952 19.9591 15.6897C19.986 15.5938 20 15.4939 20 15.3921V8.60461C20 8.17261 19.7379 7.77014 19.3168 7.55408L12.687 4.16357C12.5749 4.10718 12.4569 4.06506 12.3362 4.03772C12.2258 4.0127 12.1129 4 12 4C11.7637 4 11.5272 4.05566 11.3168 4.16357L4.68319 7.55737C4.26212 7.77332 4 8.17261 4 8.60461V15.3921C4 15.8241 4.26212 16.2267 4.68319 16.4426L5.87608 17.0513L11.3168 19.8363ZM12 4.99158C12.0442 4.99158 12.0849 5.00146 12.1255 5.02112L18.7589 8.41479C18.8365 8.4541 18.8847 8.52612 18.8847 8.60461V15.3921L18.8834 15.4159L18.8796 15.4366L18.8745 15.4539C18.8699 15.4674 18.864 15.4805 18.8567 15.4929C18.8349 15.5295 18.8012 15.5605 18.7589 15.5819L17.7492 16.099L15.0913 9.64209C15.0787 9.61096 15.0563 9.58801 15.0296 9.57336C14.9553 9.53247 14.8462 9.55542 14.8106 9.64209L13.9353 11.766C13.9095 11.825 13.9095 11.8904 13.9353 11.9493L16.01 16.9897L15.3195 17.3433L13.6215 13.2158C13.5954 13.1515 13.5283 13.1223 13.465 13.1283C13.4345 13.1311 13.4052 13.1421 13.3815 13.1611C13.3642 13.175 13.3499 13.1932 13.3408 13.2158L12.4655 15.3397C12.4547 15.3643 12.4485 15.3899 12.4467 15.4158C12.4442 15.452 12.4504 15.4886 12.4655 15.5229L13.5803 18.234L12.1255 18.979C12.0886 18.9985 12.0442 19.0084 12 19.0084C11.9558 19.0084 11.9151 18.9985 11.8745 18.979L10.434 18.2416L14.5259 8.30029C14.5391 8.26855 14.538 8.23633 14.5264 8.20813C14.5059 8.15784 14.4518 8.12024 14.3855 8.12024H12.705C12.6517 8.12024 12.6002 8.13269 12.5558 8.15491C12.4954 8.18506 12.4475 8.2334 12.4243 8.2937L8.86638 16.9341L8.22575 16.4623L11.5862 8.297C11.6026 8.25488 11.5938 8.21118 11.5676 8.17773C11.5409 8.14368 11.4962 8.12024 11.4421 8.12024H9.76158C9.71713 8.12024 9.6743 8.12878 9.63551 8.14453C9.56439 8.17334 9.50727 8.22595 9.48087 8.2937L6.26455 16.1073L5.24461 15.5852C5.16703 15.5459 5.11907 15.4739 5.11907 15.3954V8.60461C5.11907 8.52612 5.16703 8.4541 5.24461 8.41479L11.8782 5.02112C11.9151 5.00146 11.9593 4.99158 12 4.99158Z" fill="white"/>
</svg>
