<svg width="24" height="24" viewBox="0 0 24 24" fill="none" xmlns="http://www.w3.org/2000/svg">
<rect width="24" height="24" rx="12" fill="black"/>
<path fill-rule="evenodd" clip-rule="evenodd" d="M13.4778 4.51852L19.1714 10.2121C20.0695 11.1102 20.0695 12.5661 19.1714 13.4642L13.4662 19.1714C12.5681 20.0695 11.1121 20.0695 10.2141 19.1714L4.51852 13.4778C3.62045 12.5798 3.62045 11.1238 4.51852 10.2257L10.2257 4.51852C11.1238 3.62045 12.5798 3.62045 13.4778 4.51852ZM11.4659 5.96282L11.4426 5.9842L5.98614 11.4406C5.76843 11.6584 5.7626 12.0044 5.96476 12.2318L5.98614 12.2551L11.4348 17.7038C11.6525 17.9215 11.9985 17.9273 12.224 17.7252L12.2474 17.7038L17.7038 12.2474C17.9273 12.0238 17.9273 11.6603 17.7038 11.4348L12.2551 5.98614C12.0374 5.76843 11.6914 5.7626 11.4659 5.96476V5.96282ZM11.9499 8.3635L15.3245 11.74C15.3809 11.7964 15.3809 11.8858 15.3245 11.9441L11.9441 15.3245C11.8877 15.3809 11.7964 15.3809 11.74 15.3245L8.36544 11.948C8.30907 11.8916 8.30907 11.8022 8.36544 11.7439L11.7458 8.3635C11.8022 8.30713 11.8936 8.30713 11.9499 8.3635Z" fill="white"/>
</svg>
