<svg width="24" height="24" viewBox="0 0 24 24" fill="none" xmlns="http://www.w3.org/2000/svg">
<path d="M12 24C18.6274 24 24 18.6274 24 12C24 5.37258 18.6274 0 12 0C5.37258 0 0 5.37258 0 12C0 18.6274 5.37258 24 12 24Z" fill="#111111"/>
<path d="M8.70118 13.1081C9.17975 13.1081 9.61993 12.9469 9.97309 12.6756L7.05563 9.75813C6.78179 10.1087 6.62312 10.5515 6.62312 11.03C6.62312 12.174 7.55467 13.1081 8.70118 13.1081Z" fill="white"/>
<path d="M17.3743 11.0275C17.3743 10.549 17.2131 10.1088 16.9418 9.75563L14.0244 12.6705C14.375 12.9444 14.8177 13.103 15.2963 13.103C16.4428 13.1082 17.3743 12.1741 17.3743 11.0275Z" fill="white"/>
<path d="M18.8432 7.85156L17.5534 9.14139C17.9808 9.65323 18.2367 10.3084 18.2367 11.0249C18.2367 12.6475 16.9162 13.968 15.2937 13.968C14.5797 13.968 13.9219 13.7095 13.4101 13.2847L11.9974 14.6974L10.5848 13.2847C10.0729 13.7121 9.41779 13.968 8.70122 13.968C7.07869 13.968 5.75816 12.6475 5.75816 11.0249C5.75816 10.3109 6.01663 9.65323 6.44146 9.14139L5.15419 7.85412C4.42226 9.06462 4 10.4824 4 12C4 16.4171 7.58029 20 12 20C16.4197 20 20 16.4197 20 12C19.9974 10.4798 19.5752 9.06462 18.8432 7.85156Z" fill="white"/>
<path d="M17.7837 6.47729C16.3301 4.95202 14.2725 4 11.9974 4C9.72228 4 7.6647 4.95202 6.21109 6.47729C6.01403 6.68714 5.82721 6.90467 5.65062 7.13244L11.9974 13.4843L18.3442 7.13244C18.1727 6.90211 17.9833 6.68714 17.7837 6.47729ZM11.9974 5.04671C13.8707 5.04671 15.6084 5.76839 16.9161 7.08381L11.9974 12.0026L7.07865 7.08381C8.38639 5.76584 10.1266 5.04671 11.9974 5.04671Z" fill="white"/>
</svg>
