<svg width="24" height="24" viewBox="0 0 24 24" fill="none" xmlns="http://www.w3.org/2000/svg">
<path d="M12 24C18.6274 24 24 18.6274 24 12C24 5.37258 18.6274 0 12 0C5.37258 0 0 5.37258 0 12C0 18.6274 5.37258 24 12 24Z" fill="#111111"/>
<path d="M7.93244 15.9998C7.0708 15.9998 6.36488 15.7924 5.81455 15.3776C5.27154 14.9554 5 14.3554 5 13.5776C5 13.4147 5.01811 13.2147 5.05428 12.9776C5.14845 12.4443 5.28239 11.8036 5.45616 11.0555C5.94849 9.01849 7.21926 8 9.26834 8C9.82587 8 10.3255 8.09628 10.7671 8.28891C11.2088 8.47404 11.5563 8.75552 11.8098 9.13328C12.0632 9.50367 12.1899 9.94812 12.1899 10.4666C12.1899 10.6222 12.1718 10.8184 12.1356 11.0555C12.027 11.7147 11.8967 12.3554 11.7446 12.9776C11.4912 13.9924 11.0532 14.7516 10.4304 15.2553C9.80776 15.7516 8.97509 15.9998 7.93244 15.9998ZM8.08449 14.3998C8.48996 14.3998 8.8339 14.2776 9.11629 14.0332C9.40588 13.7888 9.61228 13.4147 9.73536 12.911C9.90187 12.2147 10.0286 11.6073 10.1155 11.0888C10.1444 10.9332 10.1589 10.774 10.1589 10.611C10.1589 9.93698 9.81501 9.59996 9.12715 9.59996C8.72167 9.59996 8.37414 9.72218 8.08449 9.96663C7.8021 10.211 7.59936 10.5851 7.47628 11.0888C7.34594 11.5851 7.2156 12.1925 7.08532 12.911C7.05635 13.0591 7.04183 13.2147 7.04183 13.3776C7.04183 14.0591 7.38936 14.3998 8.08449 14.3998Z" fill="white"/>
<path d="M12.6885 15.8889C12.6089 15.8889 12.5473 15.863 12.5039 15.8111C12.4677 15.7519 12.4568 15.6852 12.4713 15.6111L13.9701 8.38915C13.9846 8.30766 14.0244 8.24098 14.0896 8.18915C14.1547 8.13727 14.2235 8.11133 14.2959 8.11133H17.1849C17.9886 8.11133 18.633 8.28172 19.1181 8.62246C19.6105 8.96319 19.8567 9.45575 19.8567 10.1002C19.8567 10.2854 19.835 10.4779 19.7915 10.6779C19.6105 11.5298 19.2449 12.1594 18.6945 12.5668C18.1515 12.9742 17.4057 13.1779 16.4572 13.1779H14.991L14.4914 15.6111C14.4769 15.6926 14.4371 15.7593 14.3719 15.8111C14.3068 15.863 14.238 15.8889 14.1656 15.8889H12.6885ZM16.5332 11.6446C16.8373 11.6446 17.1016 11.5594 17.3261 11.3891C17.5578 11.2187 17.7098 10.9742 17.7823 10.6557C17.804 10.5298 17.8148 10.4187 17.8148 10.3224C17.8148 10.1076 17.7533 9.94465 17.6302 9.83351C17.5071 9.715 17.2971 9.65574 17.0002 9.65574H15.697L15.2842 11.6446H16.5332Z" fill="white"/>
</svg>
