<svg width="24" height="24" viewBox="0 0 24 24" fill="none" xmlns="http://www.w3.org/2000/svg">
<circle cx="12" cy="12" r="12" fill="#111111"/>
<path d="M15.7399 9.54216C15.4772 9.39205 15.1395 9.39205 14.8393 9.54216L12.7378 10.7805L11.3118 11.5686L9.2478 12.807C8.98511 12.9571 8.64737 12.9571 8.34716 12.807L6.73351 11.8313C6.47082 11.6812 6.28319 11.381 6.28319 11.0432V9.16689C6.28319 8.86668 6.4333 8.56646 6.73351 8.37883L8.34716 7.44066C8.60984 7.29056 8.94758 7.29056 9.2478 7.44066L10.8614 8.41636C11.1241 8.56646 11.3118 8.86668 11.3118 9.20442V10.4428L12.7378 9.61721V8.3413C12.7378 8.04109 12.5877 7.74088 12.2875 7.55324L9.28532 5.78949C9.02264 5.63938 8.6849 5.63938 8.38468 5.78949L5.3075 7.59077C5.00728 7.74088 4.85718 8.04109 4.85718 8.3413V11.8688C4.85718 12.169 5.00728 12.4692 5.3075 12.6569L8.34716 14.4206C8.60984 14.5707 8.94758 14.5707 9.2478 14.4206L11.3118 13.2198L12.7378 12.3942L14.8017 11.1933C15.0644 11.0432 15.4022 11.0432 15.7024 11.1933L17.316 12.1315C17.5787 12.2816 17.7663 12.5818 17.7663 12.9196V14.7959C17.7663 15.0961 17.6162 15.3963 17.316 15.5839L15.7399 16.5221C15.4772 16.6722 15.1395 16.6722 14.8393 16.5221L13.2256 15.5839C12.9629 15.4338 12.7753 15.1336 12.7753 14.7959V13.595L11.3493 14.4206V15.659C11.3493 15.9592 11.4994 16.2594 11.7996 16.4471L14.8393 18.2108C15.102 18.3609 15.4397 18.3609 15.7399 18.2108L18.7796 16.4471C19.0423 16.297 19.2299 15.9967 19.2299 15.659V12.094C19.2299 11.7938 19.0798 11.4935 18.7796 11.3059L15.7399 9.54216Z" fill="white"/>
</svg>
