<svg width="14" height="16" viewBox="0 0 14 16" fill="none" xmlns="http://www.w3.org/2000/svg">
<path d="M10.0358 5.07317L11.6667 3.57231C10.6878 1.82957 9.61796 0.0837259 6.63757 0L5.05556 1.4559C8.02921 1.53032 9.05693 3.32423 10.0375 5.07317H10.0358Z" fill="#989898"/>
<path d="M2.52778 3.80722C5.48053 3.88206 6.48692 5.7127 7.45844 7.48252C8.43992 9.26793 9.4513 11.1126 12.4389 11.122L14 9.6562C11.0971 9.6562 10.1422 7.93004 9.13743 6.09941C8.14598 4.29216 7.11966 2.42723 4.08885 2.34146L2.52778 3.80722Z" fill="#989898"/>
<path d="M0 6.14868C2.95275 6.22353 3.95915 8.05416 4.93066 9.82398C5.91215 11.6094 6.92352 13.4541 9.91115 13.4634L11.4722 11.9977C8.56929 11.9977 7.61438 10.2715 6.60965 8.44087C5.6182 6.63363 4.59188 4.76869 1.56107 4.68293L0 6.14868Z" fill="#989898"/>
<path d="M2.33333 12.4314C3.32019 14.1924 4.35935 15.9907 7.35872 16L8.94444 14.539C5.99568 14.539 5.02569 12.8184 4.00509 10.9937C3.99328 10.9719 3.97979 10.9486 3.96798 10.9268L2.33502 12.4314H2.33333Z" fill="#989898"/>
</svg>
