<svg width="40" height="40" viewBox="0 0 40 40" fill="none" xmlns="http://www.w3.org/2000/svg">
<g clip-path="url(#clip0_1_1102)">
<path d="M20 40C31.0457 40 40 31.0457 40 20C40 8.9543 31.0457 0 20 0C8.9543 0 0 8.9543 0 20C0 31.0457 8.9543 40 20 40Z" fill="#26A17B"/>
<path fill-rule="evenodd" clip-rule="evenodd" d="M22.4025 21.7291V21.7266C22.265 21.7366 21.5562 21.7791 19.975 21.7791C18.7125 21.7791 17.8237 21.7416 17.5112 21.7266V21.7304C12.6512 21.5166 9.02375 20.6704 9.02375 19.6579C9.02375 18.6466 12.6512 17.8004 17.5112 17.5829V20.8879C17.8287 20.9104 18.7387 20.9641 19.9962 20.9641C21.505 20.9641 22.2613 20.9016 22.4025 20.8891V17.5854C27.2525 17.8016 30.8713 18.6479 30.8713 19.6579C30.8713 20.6704 27.2525 21.5141 22.4025 21.7291ZM22.4025 17.2416V14.2841H29.17V9.77411H10.7438V14.2841H17.5112V17.2404C12.0112 17.4929 7.875 18.5829 7.875 19.8879C7.875 21.1929 12.0112 22.2816 17.5112 22.5354V32.0129H22.4025V22.5329C27.8938 22.2804 32.02 21.1916 32.02 19.8879C32.02 18.5841 27.8938 17.4954 22.4025 17.2416Z" fill="white"/>
</g>
<defs>
<clipPath id="clip0_1_1102">
<rect width="40" height="40" fill="white"/>
</clipPath>
</defs>
</svg>
