<svg width="40" height="40" viewBox="0 0 40 40" fill="none" xmlns="http://www.w3.org/2000/svg">
<rect width="40" height="40" rx="8" fill="#FFCDA8"/>
<path d="M25.1551 15.122L27.8888 12.6205C26.248 9.71595 24.4548 6.80621 19.4591 6.66667L16.8073 9.09317C21.7917 9.21721 23.5144 12.2071 25.158 15.122H25.1551Z" fill="#1E1E1E"/>
<path d="M12.5703 13.012C17.5197 13.1368 19.2066 16.1878 20.835 19.1375C22.4802 22.1132 24.1754 25.1877 29.1833 25.2033L31.7999 22.7603C26.9341 22.7603 25.3334 19.8834 23.6493 16.8323C21.9875 13.8203 20.2672 10.712 15.1869 10.5691L12.5703 13.012Z" fill="#1E1E1E"/>
<path d="M8.33325 16.9145C13.2826 17.0392 14.9695 20.0903 16.598 23.04C18.2431 26.0157 19.9384 29.0901 24.9462 29.1057L27.5629 26.6628C22.697 26.6628 21.0964 23.7858 19.4123 20.7348C17.7504 17.7227 16.0301 14.6145 10.9499 14.4715L8.33325 16.9145Z" fill="#1E1E1E"/>
<path d="M12.2444 27.3856C13.8985 30.3206 15.6403 33.3178 20.6679 33.3333L23.3258 30.8983C18.3831 30.8983 16.7573 28.0307 15.0465 24.9894C15.0268 24.9532 15.0041 24.9143 14.9843 24.8781L12.2472 27.3856H12.2444Z" fill="#1E1E1E"/>
</svg>
